<svg xmlns="http://www.w3.org/2000/svg" width="144.7" height="16.2" viewBox="0 0 144.7 16.2"><path d="M41.4 4.9c-.9 0-1.7.4-2.3 1.3-.5.8-.8 1.7-.8 2.6 0 .6.1 1.2.3 1.7.1.2.1.3.2.4-.5.2-.8.3-1.1.4l-.5.1c-.3 0-.5 0-.7-.1-.2-.1-.4-.3-.6-.4.7-.6 1.2-1.3 1.6-2s.6-1.4.6-2c0-.5-.1-1-.4-1.3-.3-.4-.7-.6-1.2-.6-.9 0-1.7.4-2.3 1.3-.5.8-.8 1.7-.8 2.6 0 .6.1 1.2.3 1.7.1.2.1.3.2.4-.5.2-.9.3-1.1.4l-.5.1c-.2 0-.4 0-.5-.1-.1 0-.2-.1-.3-.1-.1-.1-.2-.2-.2-.5 0-.2 0-.4.1-.6.1-.4.1-.6.1-.7 0-.4-.2-.7-.5-.9.4-.3.8-.7 1.1-1.2.3-.6.5-1.1.5-1.5 0-.4-.3-.6-.8-.6-.3 0-.5.2-.6.7l-.2.2c-.1.5-.3.9-.4 1.1-.1.2-.3.5-.5.8h-.5l-.3.1-.3.1 1.8-5.9.3-.8c.1-.4.2-.7.2-.8 0-.3-.3-.5-.8-.5-.6 0-1 .4-1.2 1.1l-1.9 7c-.3 1-.6 1.7-.9 2.2-.1-.1-.2-.1-.3-.1-.3 0-.6.3-.9.8-.3 0-.5-.1-.6-.1-.1-.1-.2-.2-.2-.4l.1-.6.3-.9.1-.5c.5-1.5.8-2.4.8-2.8 0-.7-.3-1-.9-1-1.1 0-2.4 1.3-3.7 3.8l.4-1.2c.2-.7.4-1.1.4-1.1.3-.8.4-1.3.4-1.3 0-.1-.1-.2-.2-.2-.2-.1-.5-.1-.8-.1-.4 0-.7.5-.9 1.5l-.4 1.9c-.2 1-.5 1.8-.9 2.4-.3.5-.7.8-1.2.8-.3 0-.5-.1-.6-.2-.1-.1-.2-.3-.2-.4 0-.3.1-.7.2-1.3.2-.7.4-1.4.7-2l.5-1.3c.1-.2.2-.4.2-.5 0-.1 0-.1.1-.2 0-.2-.1-.4-.4-.5-.2-.1-.5-.1-.7-.1-.2 0-.3.1-.3.2 0 0-.1.2-.1.4l-.1.3c-.6-.7-1-.9-1.5-.9-1.3 0-2.3.8-3.3 2.3-.3.5-.5 1-.7 1.5-.2.6-.3 1.1-.3 1.4v.7c-.2.1-.3.2-.5.3l-.7.1h-.8l-.4-.1.5-1.9c.3-.4.4-.8.4-1l1.8-7.2.1-.6c0-.2-.2-.3-.5-.4-.2 0-.4-.1-.6-.1-.2 0-.5.6-.8 1.7-.2.7-.4 1.2-.6 1.7-.4 1-.8 2-1.3 2.9C7.4 7.5 6.7 8.6 6 9.4c-.6.8-1.2 1.1-1.7 1.1-.2 0-.3 0-.4-.1-.1-.1-.1-.2-.1-.3v-.3L5 6.3c.5-1.6.8-2.8.8-3.6 0-.8-.2-1.4-.6-1.9-.4-.4-1-.7-1.7-.7C2.4.1 1.5.6.8 1.7c-.5 1-.8 2-.8 3.1 0 .4.1.8.2 1.2.2.4.5.6.9.6s.6-.2.6-.4c-.2-.2-.3-.6-.3-1.1 0-.7.2-1.4.5-2.1.4-.9.9-1.3 1.6-1.3.3 0 .5.1.6.3.1.2.2.4.2.7 0 .5-.3 1.6-1 3.6l-.4 1.1c-.2.6-.4 1.3-.6 2.1-.2.7-.3 1.1-.3 1.3 0 .4.1.8.4 1 .2.3.6.4 1 .4 1.7 0 3.5-1.9 5.4-5.6-.2 1-.4 2-.7 2.9l-.9 2.7c-.9.5-1.6 1-2.1 1.5-.5.6-.8 1.2-.8 1.7 0 .3.1.5.3.7.2.2.4.2.7.2 1.3 0 2.4-1.3 3.5-3.9l.8.1h.5c.5-.1.8-.1 1-.1.4-.1.7-.2.8-.3.1.2.3.3.5.4.2.1.4.1.7.1.5 0 1.1-.2 1.6-.7.5-.5 1-1.2 1.5-2.2l-.3 1c0 .2-.1.4-.1.7 0 .4.1.7.4.9.3.2.8.3 1.5.3h.1c.3 0 .5-.1.8-.2.3-.1.5-.3.7-.5l-.1.3v.2c0 .1 0 .2.1.2s.2.1.4.1c.6 0 .9-.3 1.1-.9l.3-.8c.2-.5.4-1 .7-1.6.2-.5.5-.9.8-1.3.6-.8 1-1.2 1.3-1.2.1-.3.1-.2.1 0 0 0-.1.4-.3 1.1l-.1.2c-.2.6-.3 1-.4 1.2-.1.2-.1.4-.2.6-.1.5-.2.8-.2 1 0 .5.2.9.5 1.1.3.2.9.4 1.7.4h.2c.3 0 .6-.1.8-.2.3-.1.5-.3.7-.5l-.1.3v.2c0 .1 0 .2.1.2s.2.1.4.1c.5 0 .8-.1.9-.3l.7-2.6h.3c.2 0 .3 0 .4-.1l.4-.2-.1 1c0 .2-.1.4-.1.5v.3c0 .4.2.8.5 1 .3.2.9.3 1.6.3h.1c.2 0 .4 0 .6-.1.1 0 .3-.1.7-.2.4-.1.9-.3 1.3-.6.5.5 1.3.8 2.3.8h.2c.1 0 .3 0 .4-.1.1 0 .3-.1.7-.2.4-.1.9-.3 1.3-.6.6.5 1.3.8 2.4.8h.2l.3-1.1h-.1c-.3 0-.6 0-.9-.1-.2-.1-.4-.3-.6-.4.7-.6 1.2-1.3 1.6-2s.6-1.4.6-2c0-.5-.1-1-.4-1.3-.1-.3-.5-.5-1-.5m-27.8 6.2c-.2 0-.3-.1-.4-.2-.1-.1-.1-.3-.1-.6 0-.8.3-1.7 1-2.7s1.3-1.4 1.9-1.4c.2 0 .3 0 .4.1l.4.2c-1.2 3.1-2.2 4.6-3.2 4.6m21.6-1.2l-.3-.6c0-.1-.1-.3-.1-.6 0-.5.1-1 .3-1.6.3-.7.7-1 1.1-1 .4 0 .6.2.6.7 0 .5-.2 1-.5 1.6-.2.7-.6 1.1-1.1 1.5m6.2-1.4c-.3.6-.7 1.1-1.2 1.4l-.3-.6c0-.1-.1-.3-.1-.6 0-.5.1-1 .3-1.6.3-.7.7-1 1.1-1 .4 0 .6.2.6.7.1.6-.1 1.1-.4 1.7m2.7 1.7c-.7 0-1.1.4-1.1 1.2 0 .3.1.6.3.7.2.2.4.3.6.3.3 0 .5-.1.7-.4.2-.2.3-.5.3-.9 0-.3-.1-.6-.2-.8-.1 0-.4-.1-.6-.1m15.1-5.3H54V0h-2.6v12.4H54V7.5h5.2v4.9h2.6V0h-2.6zM76 0h-5.3c-.7 0-1.3.3-1.8.8-.6.5-.9 1.1-.9 1.8v9.8h2.6V7.5h5.2v4.9h2.6V2.6c0-.7-.3-1.3-.8-1.8-.4-.5-.9-.8-1.6-.8m-.1 4.9h-5.2V2.6h5.2v2.3zM85.5.8c-.5.5-.8 1.1-.8 1.8v7.2c0 .7.3 1.4.8 1.8.5.5 1.1.8 1.8.8h7.8V8.5h-2.6v1.3h-5.2V2.6h5.2v1.3h2.6V0h-7.8c-.7 0-1.3.3-1.8.8m22.8-.8l-4.4 4.4V0h-2.6v12.4h2.6V8.1l4.4 4.3h3.7l-6.3-6.2L112 0zm10.1.8c-.5.5-.8 1.1-.8 1.8v7.2c0 .7.3 1.4.8 1.8.5.5 1.1.8 1.8.8h7.8V8.5h-2.6v1.3h-5.2V7.5h2.7V4.9h-2.7V2.6h5.2v1.3h2.6V0h-7.8c-.6 0-1.2.3-1.8.8m23.7-.8h-7.8v12.4h2.6V7.2h5.2v5.2h2.6V7.2c0-.5-.1-.9-.4-1.3.2-.4.4-.8.4-1.3v-2c0-.7-.3-1.3-.8-1.8-.4-.5-1.1-.8-1.8-.8m0 4.6h-5.2v-2h5.2v2z" fill="#fff"/></svg>