<svg xmlns="http://www.w3.org/2000/svg" width="144.7" height="16.2" viewBox="0 0 144.7 16.2"><path d="M59.6 5.9c1.1-.3 2.8-1.1 2.8-3.1 0-2.7-3.3-2.9-4.3-2.9h-6.7v.9h.8c.5 0 .8.5.8.9v8.9c0 .5-.4.9-.8.9h-.8v.9h7.3c2 0 4.2-1.2 4.2-3.3 0-2.1-2-2.9-3.3-3.2m-3.9-4c0-.6.3-1 .8-1h1.3c.8 0 1.7.6 1.7 2.2 0 .5-.1 1.5-.6 1.9-.4.4-.8.5-1.3.5h-1.9V1.9zm2 9.7h-.9c-.5 0-1.2-.3-1.2-1.1v-4h1.9c1.2 0 2.4.8 2.4 2.5.1 1.7-1.1 2.6-2.2 2.6M72.5.9h.9c.5 0 .8.4.8.9v6.8c0 1.7-1.1 2.8-2.7 2.8-1.7 0-2.4-1.1-2.4-2.2V1.7c0-.6.4-.9.8-.9h.7V0H65v.9h.6c.5 0 .8.4.8.9v6.4c0 2.6 1.7 4.3 4.4 4.3S75 11 75 8.6V1.7c0-.6.4-.9.8-.9h.9V0h-4.2v.9zm12.3 4.6c-.5-.3-1.1-.6-1.8-.8-1.2-.4-2.2-1-2.4-1.4-.2-.3-.3-.5-.3-.8 0-.8.6-1.5 2-1.5 2.1 0 2.7 1.6 3 2.4l.1.2.9-.3-1-3.3-.2.1c-.3.2-.6.3-.9.3-.1 0-.3 0-.8-.1-.6-.1-.8-.2-1.2-.2-2.3 0-3.8 1.4-3.8 3.4 0 1.7 1 2.4 2 3 .5.3 1.1.5 1.7.8.9.3 2.1.9 2.5 1.4.3.3.4.7.4 1 0 .7-.5 1.8-2 1.8-2.2 0-3.3-1.9-3.8-2.6l-.1-.1-.9.3 1.2 3.3.2-.1c.3-.1.8-.3 1.3-.3.1 0 .2 0 .7.1.7.1 1.1.2 1.5.2 2.5 0 3.8-1.9 3.8-3.8 0-1.6-1.1-2.4-2.1-3M89 .9h.7c.7 0 1 .3 1 1v8.7c0 .7-.3 1-1 1H89v.9h6.1v-.9h-.7c-.7 0-1-.3-1-1V1.9c0-.7.3-1 1-1h.7V0H89v.9zm16.6 0h.5c.3 0 1 .2 1 1v5.7L101.7 0h-4v.9h.8c.4 0 1 .5 1 .9v8.8c0 1-1 1-1 1h-.8v.9h4.5v-.9h-.8c-.3 0-1-.2-1-1V2.8l6.8 9.7h.8V1.9c0-1 1-1 1-1h.5V0h-3.8v.9zM121.7 9c-.4.6-.8 1.2-1.5 1.7-1.1.7-2 .9-2.5.9h-.7c-.6 0-.9-.3-.9-.9V6.4h1c.8 0 1.3.6 1.3 1.2v.9h.9v-5h-.9v.6c0 .9-.9 1.4-1.3 1.4h-1V1.9c0-.6.4-1 .9-1h.7c1 0 2.1.4 2.9 1.1.4.3.5.6.9 1.2l.1.1.8-.4L121 0h-9.1v.9h.7c.6 0 .8.5.8.9v8.7c0 .5-.5 1-.9 1h-.6v.9h9.4l1.1-3.2-.7-.4V9zm9.8-3.5c-.5-.3-1.1-.6-1.8-.8-1.2-.4-2.2-1-2.4-1.4-.2-.3-.3-.5-.3-.8 0-.8.6-1.5 2-1.5 2.1 0 2.7 1.6 3 2.4l.1.2.9-.3-1-3.3-.2.1c-.3.2-.6.3-.9.3-.1 0-.3 0-.8-.1-.6-.1-.8-.2-1.2-.2-2.3 0-3.8 1.4-3.8 3.4 0 1.7 1 2.4 2 3 .5.3 1.1.5 1.7.8.9.3 2.1.9 2.5 1.4.2.3.3.6.3 1 0 .7-.5 1.8-2 1.8-2.2 0-3.3-1.9-3.8-2.6l-.1-.1-.9.3 1.2 3.3.2-.1c.3-.1.8-.3 1.3-.3.1 0 .2 0 .7.1.7.1 1.1.2 1.5.2 2.5 0 3.8-1.9 3.8-3.8.1-1.6-.9-2.4-2-3m11.1 0c-.5-.3-1.1-.6-1.8-.8-1.2-.4-2.2-1-2.4-1.4-.2-.3-.3-.5-.3-.8 0-.8.6-1.5 2-1.5 2.1 0 2.7 1.6 3 2.4l.1.2.9-.3-.9-3.3-.2.1c-.3.2-.6.3-.9.3-.1 0-.3 0-.8-.1-.6-.1-.8-.2-1.2-.2-2.3 0-3.8 1.4-3.8 3.4 0 1.7 1 2.4 2 3 .5.3 1.1.5 1.7.8.9.3 2.1.9 2.5 1.4.2.3.3.6.3 1 0 .7-.5 1.8-2 1.8-2.2 0-3.3-1.9-3.8-2.6v-.1l-1 .4 1.2 3.3.2-.1c.3-.1.8-.3 1.3-.3.1 0 .2 0 .7.1.7.1 1.1.2 1.5.2 2.5 0 3.8-1.9 3.8-3.8 0-1.7-1-2.5-2.1-3.1M41.4 4.9c-.9 0-1.7.4-2.3 1.3-.5.8-.8 1.7-.8 2.6 0 .6.1 1.2.3 1.7.1.2.1.3.2.4-.5.2-.8.3-1.1.4l-.5.1c-.3 0-.5 0-.7-.1-.2-.1-.4-.3-.6-.5.7-.6 1.2-1.3 1.6-2 .4-.7.6-1.4.6-2 0-.5-.1-1-.4-1.3-.3-.4-.7-.6-1.2-.6-.9 0-1.7.4-2.3 1.3-.5.8-.8 1.7-.8 2.6 0 .6.1 1.2.3 1.7.1.2.1.3.2.4-.5.2-.9.3-1.1.4l-.5.1c-.2 0-.4 0-.5-.1-.1 0-.2-.1-.3-.1-.1-.1-.2-.2-.2-.5 0-.2 0-.4.1-.6.1-.4.1-.6.1-.7 0-.4-.2-.7-.5-.9.4-.3.8-.7 1.1-1.2.3-.6.5-1.1.5-1.5 0-.4-.3-.6-.8-.6-.3 0-.5.2-.6.7l-.2.3c-.1.5-.3.9-.4 1.1-.1.2-.3.5-.5.8h-.5l-.3.1-.3.1 1.8-5.9.3-.8c.1-.4.2-.7.2-.8 0-.3-.3-.5-.8-.5-.6 0-1 .4-1.2 1.1l-1.9 7c-.3 1-.6 1.7-.9 2.2-.1-.1-.2-.1-.3-.1-.3 0-.6.3-.9.8-.3 0-.5-.1-.6-.1-.1-.1-.2-.2-.2-.4l.1-.6.3-.9.1-.5c.5-1.5.8-2.4.8-2.8 0-.7-.3-1-.9-1-1.1 0-2.4 1.3-3.7 3.8l.4-1.2c.2-.7.3-1.1.4-1.1.3-.8.4-1.3.4-1.3 0-.1-.1-.2-.2-.2-.2-.1-.5-.1-.8-.1-.4 0-.7.5-.9 1.5l-.4 1.9c-.2 1-.5 1.8-.9 2.4-.3.5-.7.8-1.2.8-.3 0-.5-.1-.6-.2-.1-.1-.2-.3-.2-.4 0-.3.1-.7.2-1.3.2-.7.4-1.4.7-2l.5-1.3c.1-.2.2-.4.2-.5 0-.1 0-.1.1-.2 0-.2-.1-.4-.4-.5-.2-.1-.5-.1-.7-.1-.2 0-.3.1-.3.2 0 0-.1.2-.1.4l-.1.3c-.6-.7-1-.9-1.5-.9-1.3 0-2.3.8-3.3 2.3-.3.5-.5 1-.7 1.5-.2.6-.3 1.1-.3 1.4v.7c-.2.1-.3.2-.5.3l-.7.1h-.8l-.4-.1.5-1.9c.3-.4.4-.8.4-1l1.8-7.1.1-.6c0-.2-.2-.3-.5-.4-.2-.1-.4-.2-.6-.2-.2 0-.5.6-.8 1.7-.3.7-.4 1.2-.6 1.7-.4 1-.8 2-1.3 2.9C7.4 7.5 6.7 8.6 6 9.4c-.6.8-1.2 1.1-1.7 1.1-.2 0-.3 0-.4-.1-.1-.1-.1-.2-.1-.3v-.3L5 6.3c.5-1.6.8-2.8.8-3.6 0-.8-.2-1.4-.6-1.9-.4-.4-1-.7-1.7-.7C2.4.1 1.5.6.8 1.7c-.5 1-.8 2-.8 3.1 0 .4.1.8.2 1.2.2.4.5.6.9.6s.6-.2.6-.4c-.2-.2-.3-.6-.3-1.1 0-.7.2-1.4.5-2.1.4-.9.9-1.3 1.6-1.3.3 0 .5.1.6.3.1.2.2.4.2.7 0 .5-.3 1.6-1 3.6l-.4 1.1c-.2.6-.4 1.3-.6 2.1-.2.7-.3 1.1-.3 1.3 0 .4.1.8.4 1 .2.3.6.4 1 .4 1.7 0 3.5-1.9 5.4-5.6-.2 1-.4 2-.7 2.9l-.9 2.7c-.9.5-1.6 1-2.1 1.5-.5.6-.8 1.2-.8 1.7 0 .3.1.5.3.7.2.2.4.2.7.2 1.3 0 2.4-1.3 3.5-3.9l.8.1h.5c.5-.1.8-.1 1-.1.4-.1.7-.2.8-.3.1.1.3.3.5.4.2.1.4.1.7.1.5 0 1.1-.2 1.6-.7.5-.5 1-1.2 1.5-2.2l-.3 1c0 .2-.1.4-.1.7 0 .4.1.7.4.9.3.2.8.3 1.5.3h.1c.3 0 .5-.1.8-.2.3-.1.5-.3.7-.5l-.1.3v.2c0 .1 0 .2.1.2s.2.1.4.1c.6 0 .9-.3 1.1-.9l.3-.8c.2-.5.4-1 .7-1.6.2-.5.5-.9.8-1.3.6-.8 1-1.2 1.3-1.2.1-.3.1-.2.1 0 0 0-.1.4-.3 1.1l-.1.2c-.2.6-.3 1-.4 1.2s-.1.4-.2.5c-.1.5-.2.8-.2 1 0 .5.2.9.5 1.1.3.2.9.4 1.7.4h.2c.3 0 .6-.1.8-.2.3-.1.5-.3.7-.5l-.1.3v.2c0 .1 0 .2.1.2s.2.1.4.1c.5 0 .8-.1.9-.3l.7-2.6h.3c.2 0 .3 0 .4-.1l.4-.2-.1 1c0 .2-.1.4-.1.5v.3c0 .4.2.8.5 1 .3.2.9.3 1.6.3h.1c.2 0 .4 0 .6-.1.1 0 .3-.1.7-.2.4-.1.9-.3 1.3-.6.5.5 1.3.8 2.3.8h.2c.1 0 .3 0 .4-.1.1 0 .3-.1.7-.2.4-.1.9-.3 1.3-.6.6.5 1.3.8 2.4.8h.2l.3-1.1h-.1c-.3 0-.6 0-.9-.1-.2-.1-.4-.3-.6-.5.7-.6 1.2-1.3 1.6-2 .4-.7.6-1.4.6-2 0-.5-.1-1-.4-1.3-.1-.1-.5-.3-1-.3m-27.8 6.2c-.2 0-.3-.1-.4-.2-.1-.1-.1-.3-.1-.6 0-.8.3-1.7 1-2.7s1.3-1.4 1.9-1.4c.2 0 .3 0 .4.1l.4.2c-1.2 3.1-2.2 4.6-3.2 4.6m21.6-1.2l-.3-.6c0-.1-.1-.3-.1-.6 0-.5.1-1 .3-1.6.3-.7.7-1 1.1-1 .4 0 .6.2.6.7 0 .5-.2 1-.5 1.6-.2.7-.6 1.1-1.1 1.5m6.2-1.4c-.3.6-.7 1.1-1.2 1.4l-.3-.6c0-.1-.1-.3-.1-.6 0-.5.1-1 .3-1.6.3-.7.7-1 1.1-1 .4 0 .6.2.6.7.1.6-.1 1.1-.4 1.7m2.7 1.7c-.7 0-1.1.4-1.1 1.2 0 .3.1.6.3.7.2.2.4.3.6.3.3 0 .5-.1.7-.4.2-.2.3-.5.3-.9 0-.3-.1-.6-.2-.8-.1 0-.4-.1-.6-.1" fill="#fff"/></svg>