<svg id="レイヤー_1" data-name="レイヤー 1" xmlns="http://www.w3.org/2000/svg" viewBox="0 0 319.68 551.69"><defs><style>.cls-1{fill:#fff}</style></defs><path class="cls-1" d="M168.64 223.22l-.24-1.22a.9.9 0 0 0-.85-.71.63.63 0 0 0-.52.25 3.13 3.13 0 0 0-.34.6l-.24.47c-.14 0-.19-.09-.3-.51a1.72 1.72 0 0 0-.34-.77.93.93 0 0 0-.65-.3 4.9 4.9 0 0 0-.67.07l-.42.06a6.9 6.9 0 0 1-.71.05c-.65 0-.8-.11-1.07-1.42a7.57 7.57 0 0 1-.12-1.77v-.12a2 2 0 0 0-.19-1.24.87.87 0 0 0-.7-.52.66.66 0 0 0-.39.15c-.41.34-.2.81-.05 1.12a1.5 1.5 0 0 1-.44.17c-.12 0-.28-.65-.44-1.32l-.18-.73-.35.66a1.74 1.74 0 0 1-.94.76 2.53 2.53 0 0 0-.74.46 7.74 7.74 0 0 0-1.11 1.48c-.16.25-.32.5-.49.73l-.15.38a2.69 2.69 0 0 1-.63.75A5.19 5.19 0 0 0 154 222a3.13 3.13 0 0 1-1.59 1.35 3.48 3.48 0 0 0-1.88 1.28l-.08.09c-.35.36-.67.76-1 1.15a12.39 12.39 0 0 1-2 2.05 27.31 27.31 0 0 0-6.25 7.08l-.89 1.36a73.16 73.16 0 0 0-7.24 12.82 18.53 18.53 0 0 1-.86 1.73c-.88 1.64-1.8 3.34-1.23 5.58a.62.62 0 0 1-.1.32 3.71 3.71 0 0 0-.67 3.11 7.14 7.14 0 0 1-.4 2.48l-.05.15c-.16.61-.37 1.2-.58 1.79a19.2 19.2 0 0 0-.85 2.92 16.79 16.79 0 0 1-1.61 4.51l-1 1.87a51.07 51.07 0 0 0-2.94 6.39c-.49 1.43-1.08 2.85-1.65 4.22-.4.95-.79 1.9-1.16 2.86-.13.34-.4 1.32-.07 1.76a2.68 2.68 0 0 1 0 2.75l-.08.21a11.11 11.11 0 0 0-.57 4h-.36c-1.27 0-1.39.3-1.72 1.53l-.12.45a3.62 3.62 0 0 1-.71 1.69 11.62 11.62 0 0 0-1.83 3.09c-.18.4-.36.79-.55 1.18l-.19.35c-.51 1-1.1 2.05-.26 3.38.12.2 0 .47-.25.86a2.65 2.65 0 0 0-.29 2 3.47 3.47 0 0 1-.36 2.5 4 4 0 0 0-.28 2.93 1.46 1.46 0 0 0 1.38 1 1.79 1.79 0 0 1 .72.23 2.27 2.27 0 0 1 1.37 1.69c.22 1.26.76 1.8 1.81 1.8a3.7 3.7 0 0 0 .63-.06h.35c.29 0 .47.09.61.55s.25.79.39 1.2l.3.9.29-.13.48-.2a5.1 5.1 0 0 0 1.51-.83 3 3 0 0 0 2.12 1c.44 0 .66-.42.86-.78a1.67 1.67 0 0 1 .53-.67 2.76 2.76 0 0 0 .74-.67l.35-.35.14-.17c.19-.1.37-.21.56-.33a4.42 4.42 0 0 1 2.08-.85 2.08 2.08 0 0 1 1.63 1.06 1.13 1.13 0 0 0 .64.35 10.46 10.46 0 0 0 2.83.44 6.88 6.88 0 0 0 3.55-1l.25-.13c.31-.15.66-.32.76-.65a1.28 1.28 0 0 1 1.44-1 2 2 0 0 0 1.95-2 3.12 3.12 0 0 1 .78-1.78c.12-.16.23-.31.33-.47.48-.73 1-1.42 1.55-2.08a17.1 17.1 0 0 0 2.64-4.09c.52-1.23 1.17-1.83 2-1.83h.28a.82.82 0 0 0 .67-.61 5.16 5.16 0 0 1 .52-1.45 3.6 3.6 0 0 0 .4-3.1.58.58 0 0 1 0-.44.42.42 0 0 1 .22-.22 3.12 3.12 0 0 0 2.32-3.14.92.92 0 0 1 .29-.57c1-.77 1.22-2 1.43-3.17a29.89 29.89 0 0 1 2.16-7.58 61.24 61.24 0 0 0 2.67-7.59c.09-.3.19-.6.28-.9a13.67 13.67 0 0 0 .91-4.93 7.74 7.74 0 0 1 .58-3.8 9.61 9.61 0 0 0 .91-3.59 8.88 8.88 0 0 1 .8-3.25v-.1a83.19 83.19 0 0 0 .51-8.73v-.63a9.56 9.56 0 0 1 0-1.2c0-.43.18-.43.28-.43a1 1 0 0 1 .31.06 5 5 0 0 0 1.54.35c1.07 0 1.33-.93 1.57-2.14a50.15 50.15 0 0 0 .94-6.5c.14-2.26.16-4.57.19-6.8v-2.91a42.12 42.12 0 0 0-1.04-9.35zm-22.15 67a11 11 0 0 0-3.17 3.92c-.07.17-.14.36-.22.55a4.07 4.07 0 0 1-.76 1.42l-.26.21a2.44 2.44 0 0 0-1.15 1.74c0 .11-.05.2-.15.2a3.33 3.33 0 0 0-1.15-.21 2.43 2.43 0 0 1-1.22-.3 2.06 2.06 0 0 0-1.21-.32h-.3a1 1 0 0 0-.7.51c-.06.08-.19.26-.23.26s-.06 0-.19-.12a1.76 1.76 0 0 1-.36-.95 4.68 4.68 0 0 0-.15-.67l-.1-.27a3.49 3.49 0 0 0-.4-.93 2.29 2.29 0 0 1 0-2.87.9.9 0 0 0 .15-.24 2.57 2.57 0 0 0 .15-2 .67.67 0 0 0-.43-.34h-.21a1.38 1.38 0 0 0-1.05.68c-.1.12-.2.24-.29.33a5.53 5.53 0 0 0-1.21-3.16 1.88 1.88 0 0 1-.29-1.55c.19-1.82.37-3.63.54-5.45l.29-3v-.34a1.65 1.65 0 0 1 .14-.74 9.16 9.16 0 0 0 1.4-3.95 12.81 12.81 0 0 1 .65-2.56c.4-1 .71-2 1-3 .23-.76.45-1.51.72-2.25a5.52 5.52 0 0 1 1-1.71 17.39 17.39 0 0 0 3.34-5.76 2.8 2.8 0 0 1 .37-.67 5.29 5.29 0 0 0 .36-.6c.13-.29.39-.4.69-.54a1.55 1.55 0 0 0 1-1c.07-.25.14-.51.2-.77a7.32 7.32 0 0 1 .51-1.54 31.28 31.28 0 0 1 2.33-3.82 20.4 20.4 0 0 0 2.12-3.34 2.67 2.67 0 0 1 1.21-1.32 6.42 6.42 0 0 0 2.8-2.19l.18-.22c.4-.46.63-.63.83-.63s.46.15.9.51l.18.16a1.64 1.64 0 0 0 1.05.53 1.14 1.14 0 0 0 .52-.13 2.28 2.28 0 0 0 1.4-1.68 3.79 3.79 0 0 1 3.26-3.19 4.23 4.23 0 0 1 .48 0 1.86 1.86 0 0 1 1.38.55 2.65 2.65 0 0 1 .6 2 44.22 44.22 0 0 1-1.51 8.93 1.09 1.09 0 0 1-.12.35c-1.75 1.76-2 4.12-2.24 6.4 0 .4-.08.79-.13 1.18-.1.76-.19 1.52-.28 2.28a75.43 75.43 0 0 1-2.06 11.81 10 10 0 0 1-.84 1.94 9.24 9.24 0 0 0-1 2.82c0 .09-.26.26-.4.36a3.53 3.53 0 0 0-.35.25 3.09 3.09 0 0 0-1.11 2.31 6.25 6.25 0 0 1-1.33 3.53 4.1 4.1 0 0 0-.62 1.28 2.56 2.56 0 0 1-.91 1.45 3.08 3.08 0 0 0-1 2.28q0 .36-.12.69a11.49 11.49 0 0 1-2.53 2.9zM218.14 489a1.48 1.48 0 0 1-.76-.26 1.77 1.77 0 0 0-.67-.33.51.51 0 0 0-.27.09 1.33 1.33 0 0 1-.71.21 1.61 1.61 0 0 1-1.43-1.17 7 7 0 0 1-.43-2.16l-2.1 1.06.88-1.54-.95-.32.76-.39a1.54 1.54 0 0 1-.17-.19l-.15-.19.05-.06c-.24-.47-.43-.58-.69-.61a5 5 0 0 1-1.4-.4 2.91 2.91 0 0 1-1.94-3.32 7.06 7.06 0 0 0-.15-3 3.75 3.75 0 0 1 .22-3 20.85 20.85 0 0 1 .71-4v-.13c.1-.37.19-.75.27-1.12.13-.59.32-1.17.48-1.68a8.84 8.84 0 0 0 .6-2.9 3.12 3.12 0 0 1 .42-1.42c.06-.12.12-.25.17-.37a73.49 73.49 0 0 0 2.86-8.15 20.07 20.07 0 0 1 1.54-3.69c.24-.48.47-.94.68-1.4l.3-.59a3.32 3.32 0 0 0 .45-1.07 14.58 14.58 0 0 1 2.72-5.78l.05-.09c.28-.41.56-.83.83-1.26a4.91 4.91 0 0 1 .39-.54 3.35 3.35 0 0 0 .4-.61l.06-.13a2.85 2.85 0 0 1 1-1.29 7.9 7.9 0 0 0 2.35-2.82l.5-.82a1.87 1.87 0 0 1 1.49-1 1.67 1.67 0 0 1 .34 0c1.21-2 2.57-3.95 3.87-5.8a70.67 70.67 0 0 0 4.61-7.1c1.35-2.5 2.85-5 4.59-7.56l.28-.41a11.65 11.65 0 0 1 3.44-3.76 9.21 9.21 0 0 0 2.43-2.8l.42-.63c.3-.44.62-.87.95-1.3l.44-.59a.44.44 0 0 0 .06-.1 1.41 1.41 0 0 1 .85-.8 4.18 4.18 0 0 0 2.14-1.86 10.7 10.7 0 0 1 1.25-1.47l.75-.71c.48-.46 1-.94 1.51-1.37a2.5 2.5 0 0 1 1.51-.7 1.52 1.52 0 0 1 1.11.52 2.31 2.31 0 0 1 1.54-.59h.13a3.48 3.48 0 0 1 1.26.35 8.42 8.42 0 0 0 2.17.55l.64.11a1.29 1.29 0 0 0 .73-.35 2.11 2.11 0 0 1 1.16-.53 1 1 0 0 1 .91.72s.08 0 .12.07a1.7 1.7 0 0 1 .85 1.63 4.21 4.21 0 0 0 0 .71 4.11 4.11 0 0 1-.33 2.18.34.34 0 0 0-.05.11c1.34 1.55.54 3.29.05 4.35-.21.47-.41.88-.61 1.3a35.53 35.53 0 0 0-1.57 3.63 6.73 6.73 0 0 1-1 1.77 7.29 7.29 0 0 0-.71 1.13 81 81 0 0 1-4.25 8.06 18.38 18.38 0 0 1-3.42 4 20 20 0 0 0-5.08 7.11 11 11 0 0 1-4.2 5.31 19.07 19.07 0 0 0-2.32 1.91 19.14 19.14 0 0 1-2.7 2.21l-.37.23a24.72 24.72 0 0 1-3.69 1.1c-1.17.27-2.5.59-2.68.9a2 2 0 0 1-1 .85 7.78 7.78 0 0 0-3.19 3 1.73 1.73 0 0 1-1.36.86 1.47 1.47 0 0 1-.49-.1 5.23 5.23 0 0 1-.69 1.54c-.06.08-.06.18-.05.47a2.92 2.92 0 0 1 0 .66 1.18 1.18 0 0 1-.18.47l-.06.57c-.06.25-.1.46-.15.68a4.32 4.32 0 0 1-1.79 3.18.7.7 0 0 0-.15.12A2.9 2.9 0 0 1 224 459l-.11.19a26 26 0 0 0-1.27 2.77v.09l.2.05a3.26 3.26 0 0 1 2.4 2.08 2 2 0 0 0 .29.24 1.4 1.4 0 0 1 .73 1.6v.14h.75a2.86 2.86 0 0 1 1 .22 1.35 1.35 0 0 0 .44.11c.25 0 .55-.07.91-.61a2 2 0 0 1 1.58-1.09 1.84 1.84 0 0 1 1.13.5 2.85 2.85 0 0 1 .82-.62c.27-.16.4-.24.44-.34a1.27 1.27 0 0 1 1.08-.72h.28l.22.15a.74.74 0 0 0 .3.18s.19-.31.28-.44.26-.37.38-.52a9.81 9.81 0 0 1 1.25-1.18l.33-.27c.27-.23.55-.44.83-.65a4.24 4.24 0 0 0 1.78-2l.11-.35.31-.15a3.23 3.23 0 0 0 .88-.8 3.77 3.77 0 0 1 2-1.38c.18-.2.37-.39.56-.59a13.8 13.8 0 0 0 1.66-1.92c.62-.94 1.24-1.86 1.9-2.77l.16-.23a2.24 2.24 0 0 1 1.9-1.26h.1a1.93 1.93 0 0 1 1.44-1.16c.41-.13.41-.15.43-.25a1.72 1.72 0 0 1 1.73-1.54h.39a.53.53 0 0 0 .07-.15 7.38 7.38 0 0 1 2.66-3.53c.26-.22.52-.44.76-.67a13.91 13.91 0 0 1 3.42-2.14l.32-.16a3.36 3.36 0 0 0 1.25-1c.48-.62 1-1.22 1.49-1.82a35 35 0 0 0 2.27-2.91 11 11 0 0 1 3.28-3.26 17.8 17.8 0 0 0 4.59-4.25 27.6 27.6 0 0 1 5.87-5.25l.32-.24a1.69 1.69 0 0 1 1-.34 2 2 0 0 1 1.06.36l.22.15-.29.49.44.43-.2.2c-.86.9-1.76 1.78-2.65 2.65a47 47 0 0 0-5.58 6.11 27.8 27.8 0 0 1-3 3.4c-.56.56-1.11 1.12-1.64 1.71l-.57.63a30 30 0 0 0-4.32 5.6 16.5 16.5 0 0 1-2 2.71l-1 1.18a1.88 1.88 0 0 1-1.3.71 1.06 1.06 0 0 0-.78.58 9.84 9.84 0 0 1-1.64 2.38 7.56 7.56 0 0 0-1.49 2.21l-.08.22-.17.15a9.92 9.92 0 0 0-2.23 3.19c-.18.34-.35.67-.54 1-.4.73-.88 1.11-1.38 1.11-.33 0-.45 0-.77.85a6.37 6.37 0 0 1-2.83 3l-.09.05a2.79 2.79 0 0 0-1.24 1.46 6.27 6.27 0 0 1-2.86 3.55 2 2 0 0 0-.42.26 8.3 8.3 0 0 1-2.73 3.17l-.34.29a8.43 8.43 0 0 0-1 1.05 6.57 6.57 0 0 1-2.34 1.94 6.71 6.71 0 0 1-2.91 3c-.38.25-.73.48-1.05.73a4.54 4.54 0 0 0-1.26 1.42 8 8 0 0 1-1.3 1.65 6.16 6.16 0 0 0-1.16 1.51 2.34 2.34 0 0 1-1.62 1.06c-.59.12-1.18.18-1.75.24h-.4l-.4.34a7 7 0 0 1-1.41 1c-.54.28-.75.45-.87.87a1.6 1.6 0 0 1-1.42 1.2 1.43 1.43 0 0 1-.23 1 1.21 1.21 0 0 1-1.05.5h-.1a2.25 2.25 0 0 1-.41-.06 1.54 1.54 0 0 1-.14.22 1.59 1.59 0 0 1-1.3.75zm17.66-55.48a2 2 0 0 1 .93.28l.16-.07a9.7 9.7 0 0 1 1.82-.48 23.4 23.4 0 0 0 5.33-1.6 5.31 5.31 0 0 0 1.44-1.1 9.83 9.83 0 0 1 .91-.8c.37-.26.67-.49 1-.72a14.1 14.1 0 0 0 4.7-5.69c.74-1.74 1.48-3.49 2.19-5.25a7.73 7.73 0 0 0 .44-3 21.08 21.08 0 0 0-.23-2.73 3.73 3.73 0 0 1 .31-2.32 1.38 1.38 0 0 0 0-1.35 2.67 2.67 0 0 1-1.12.22h-.62l-.49-.05h-.16a1.2 1.2 0 0 0-.46.07l-.31.12c-.31.11-.43.16-.51.27l-.09.12a3.78 3.78 0 0 1-2.28 1.73c-.3.06-.69.74-.84 1a26.51 26.51 0 0 1-2 3 34.09 34.09 0 0 0-2.4 3.85c-.25.5-.72 1.43-1.7 1.5-.28 0-.41.17-.73.6-.13.17-.26.34-.4.5a26.31 26.31 0 0 0-3.78 6.07c-.4.79-.8 1.57-1.22 2.34-.3.55-.58 1.14-.85 1.71s-.59 1.27-.92 1.87a.55.55 0 0 0 .26.06 3 3 0 0 0 .61-.07 4.38 4.38 0 0 1 .83-.1z" transform="translate(-2.18 -1.72)"/><path class="cls-1" d="M281.41 421.81l.27-.45a1.67 1.67 0 0 0-.83-.31 1.38 1.38 0 0 0-.89.29l-.32.24a27.4 27.4 0 0 0-5.82 5.2 18.16 18.16 0 0 1-4.66 4.31 10.85 10.85 0 0 0-3.2 3.17 33.33 33.33 0 0 1-2.28 2.94c-.51.6-1 1.19-1.48 1.81a3.65 3.65 0 0 1-1.36 1.05l-.31.16a13.29 13.29 0 0 0-3.35 2.1c-.25.23-.51.45-.77.67a7.1 7.1 0 0 0-2.58 3.4c-.07.25-.21.38-.25.38l-.38-.06a1.45 1.45 0 0 0-1.55 1.31c0 .26-.16.32-.62.47a1.71 1.71 0 0 0-1.28 1 .28.28 0 0 1-.27.16 1.94 1.94 0 0 0-1.74 1.11c0 .09-.11.17-.17.26-.67.92-1.29 1.85-1.89 2.75a13.34 13.34 0 0 1-1.68 1.93c-.22.23-.45.46-.67.7a3.43 3.43 0 0 0-1.91 1.31 3.47 3.47 0 0 1-1 .86l-.21.1-.07.24a4.54 4.54 0 0 1-1.88 2.14c-.28.2-.56.41-.82.63l-.32.27a9.41 9.41 0 0 0-1.12 1.15 4.54 4.54 0 0 0-.36.5c-.23.35-.4.57-.54.57a1 1 0 0 1-.45-.24l-.15-.11h-.16a1 1 0 0 0-.84.54c-.08.19-.27.31-.56.47a2.37 2.37 0 0 0-.89.75v.06a1.64 1.64 0 0 0-1.11-.64c-.75 0-1.24.71-1.4.95-.45.7-.88.76-1.16.74a1.42 1.42 0 0 1-.54-.13 2.84 2.84 0 0 0-.85-.2h-.53a2.5 2.5 0 0 1-.53 0 2.38 2.38 0 0 1 .11-.53 1.14 1.14 0 0 0-.62-1.28c-.17-.12-.36-.25-.4-.38a3 3 0 0 0-2.21-1.9h-.21a1.43 1.43 0 0 1-.29-.08l.15-.38a22.51 22.51 0 0 1 1.29-2.81l.11-.19a2.58 2.58 0 0 0 .37-2.53.85.85 0 0 1 .33-.31 4 4 0 0 0 1.66-3c0-.23.09-.45.15-.68v-.42l-.1-.08a1 1 0 0 0 .29-.55 3.11 3.11 0 0 0 0-.61 1 1 0 0 1 .11-.64 6.1 6.1 0 0 0 .75-1.8 1.09 1.09 0 0 0 .6.23 1.43 1.43 0 0 0 1.19-.74 8.11 8.11 0 0 1 3.32-3.09 1.72 1.72 0 0 0 .85-.72c.43-.76 4-1.08 6.46-2.1l.36-.23a19.29 19.29 0 0 0 2.66-2.16 17.1 17.1 0 0 1 2.37-2 10.69 10.69 0 0 0 4.09-5.18 20.13 20.13 0 0 1 5.15-7.21 18.12 18.12 0 0 0 3.37-4 81.35 81.35 0 0 0 4.23-8 7.54 7.54 0 0 1 .74-1.19 6.53 6.53 0 0 0 1-1.7 38.33 38.33 0 0 1 1.56-3.6l.64-1.35c.49-1.08 1.24-2.71-.11-4.14a.82.82 0 0 1 .11-.33 3.91 3.91 0 0 0 .3-2 6.94 6.94 0 0 1 0-.79 1.37 1.37 0 0 0-.71-1.36c-.12-.08-.23-.16-.25-.22a.64.64 0 0 0-.59-.5c-.1 0-.39 0-1 .47a1.45 1.45 0 0 1-.95.4l-.63-.11a8.63 8.63 0 0 1-2.25-.57 3.21 3.21 0 0 0-1.16-.33 2.17 2.17 0 0 0-1.69.73 1.27 1.27 0 0 0-1-.66 2.24 2.24 0 0 0-1.4.64c-.52.42-1 .89-1.48 1.35-.25.24-.5.49-.76.72a10.9 10.9 0 0 0-1.21 1.43 4.35 4.35 0 0 1-2.31 2 1.17 1.17 0 0 0-.65.64.62.62 0 0 1-.1.16l-.44.59q-.48.63-.93 1.29l-.43.63a9.34 9.34 0 0 1-2.51 2.88 11.35 11.35 0 0 0-3.35 3.68l-.28.41c-1.74 2.58-3.23 5-4.58 7.53a69.56 69.56 0 0 1-4.6 7.1c-1.36 1.91-2.75 3.89-4 6a1.23 1.23 0 0 0-.41-.1c-.7 0-1.1.59-1.31.92s-.34.54-.5.82a7.93 7.93 0 0 1-2.44 2.91 2.65 2.65 0 0 0-.85 1.17l-.06.13a3.79 3.79 0 0 1-.44.66 6.15 6.15 0 0 0-.37.52c-.29.46-.59.91-.89 1.36a14.37 14.37 0 0 0-2.67 5.67 3.58 3.58 0 0 1-.47 1.14c-.1.19-.21.39-.3.59-.21.47-.45.93-.68 1.39a19.24 19.24 0 0 0-1.52 3.65 73.5 73.5 0 0 1-2.88 8.19 3.26 3.26 0 0 1-.18.38 2.83 2.83 0 0 0-.39 1.3 9.27 9.27 0 0 1-.61 3c-.17.53-.34 1.08-.47 1.65l-.3 1.26a20.44 20.44 0 0 0-.71 4 3.43 3.43 0 0 0-.23 2.85 7.47 7.47 0 0 1 .16 3.09 2.62 2.62 0 0 0 1.77 3 4.58 4.58 0 0 0 1.32.38c.44.05.7.29 1 .93h.06l-.07.08a1.2 1.2 0 0 0 .53.39l-.61.31.64.22-.58 1 1.42-.72c.16.07.25.13.24.18a6.31 6.31 0 0 0 .42 2.23 1.3 1.3 0 0 0 1.1 1 1.07 1.07 0 0 0 .62-.16.72.72 0 0 1 .44-.13 1.77 1.77 0 0 1 .81.38 1.31 1.31 0 0 0 .63.21 1.29 1.29 0 0 0 1.13-.63l.12-.17.13-.19a3.28 3.28 0 0 0 .55.09 1 1 0 0 0 .9-.38 1.4 1.4 0 0 0 .13-1.11h.07a1.32 1.32 0 0 0 1.4-1c.16-.53.44-.74 1-1a7.33 7.33 0 0 0 1.35-1c.16-.13.31-.27.47-.39l.48-.05a16.93 16.93 0 0 0 1.72-.24 2 2 0 0 0 1.42-.9 6 6 0 0 1 1.21-1.57 8.17 8.17 0 0 0 1.26-1.61 4.81 4.81 0 0 1 1.33-1.5c.34-.27.71-.51 1.07-.75a6.27 6.27 0 0 0 2.82-2.95l.14-.08a6.15 6.15 0 0 0 2.23-1.86 9.82 9.82 0 0 1 1-1.08l.34-.28a8.3 8.3 0 0 0 2.68-3.12 1.8 1.8 0 0 1 .51-.35 6 6 0 0 0 2.74-3.4 3 3 0 0 1 1.35-1.59l.08-.06a6.18 6.18 0 0 0 2.73-2.82c.3-.79.49-1 1-1s.89-.52 1.14-.95l.53-1a10 10 0 0 1 2.3-3.28l.11-.1.06-.14a7.42 7.42 0 0 1 1.53-2.29 9.46 9.46 0 0 0 1.6-2.32 1.34 1.34 0 0 1 1-.75 1.61 1.61 0 0 0 1.13-.6c.31-.41.65-.8 1-1.2a15.94 15.94 0 0 0 2-2.66 29.9 29.9 0 0 1 4.35-5.65l.57-.63c.53-.59 1.09-1.16 1.65-1.72a28 28 0 0 0 3-3.37 48.24 48.24 0 0 1 5.61-6.15c.89-.87 1.79-1.73 2.65-2.63zm-46 8.07c.42-.76.82-1.55 1.21-2.33a26.88 26.88 0 0 1 3.83-6.13 5.71 5.71 0 0 0 .38-.48c.33-.44.53-.68.94-.71.82-.06 1.23-.86 1.47-1.34a30.11 30.11 0 0 1 2.39-3.84c.67-1 1.37-2 2-3.07.31-.55.64-1.06 1-1.14a3.45 3.45 0 0 0 2.11-1.62l.09-.12a1.29 1.29 0 0 1 .64-.37l.3-.11a1.65 1.65 0 0 1 .74-.09h.88a2.4 2.4 0 0 0 1.47-.34 1.88 1.88 0 0 1 .12 1.89 3.45 3.45 0 0 0-.28 2.14 20 20 0 0 1 .23 2.77 8.18 8.18 0 0 1-.45 3.1q-1.08 2.64-2.2 5.26a14.39 14.39 0 0 1-4.79 5.8l-1 .72a14.47 14.47 0 0 1-2.41 1.93c-3.51 1.56-6 1.57-7.14 2.07l-.3.15a1.68 1.68 0 0 0-.93-.32 3.28 3.28 0 0 0-.89.09 3.67 3.67 0 0 1-.7.08 1.08 1.08 0 0 1-.41-.11 1.22 1.22 0 0 0-.24-.1c.38-.68.71-1.38 1-2.07s.67-1.13.99-1.71zm52.81-205.52a7.83 7.83 0 0 0-.58-.69l-.21-.23c-.37-.42-.39-.79-.11-1.45.74-1.72.69-1.89-.14-3.14l-.15-.22a8.39 8.39 0 0 0-.56-.77 5.13 5.13 0 0 1-1.1-2 1.31 1.31 0 0 0-1.22-1.08 1.18 1.18 0 0 0-.88.41 1.53 1.53 0 0 1-.34.26 1.52 1.52 0 0 0-.81 1.23c0 .33-.16.33-.23.33h-.28c-.64-.18-1.29-.37-1.94-.5h-.23a.81.81 0 0 0-.6.25 1.34 1.34 0 0 0-.25 1c0 .09 0 .2.05.3s.05.19.05.2l-.08.18c-1.25 2.57-2.42 5-4.52 6.51a1.18 1.18 0 0 1-.29.16.86.86 0 0 1-.12-.22.85.85 0 0 0-.57-.58l-.24-.05-.08.23a4.87 4.87 0 0 1-1.37 1.85 8.28 8.28 0 0 0-1.08 1.19 10.16 10.16 0 0 1-1.82 1.88c-.34.3-.69.6-1 .92s-.84.77-1.26 1.13a10 10 0 0 0-2.91 3.4 5.21 5.21 0 0 0-1.35 1.74 4.27 4.27 0 0 1-1.31 1.68 11.23 11.23 0 0 0-3.62 4.49 67 67 0 0 1-3.49 5.83 70 70 0 0 0-4 6.71c-1.64 3.14-3.24 6.4-4.78 9.55l-1.6 3.25c-.28.56-.54 1.12-.81 1.69-.37.79-.74 1.57-1.17 2.42a4.11 4.11 0 0 1-1.08 1.53 5.17 5.17 0 0 0-1.9 2.88 7.27 7.27 0 0 1-1.2 2.23h-.23a2.74 2.74 0 0 0-1.73.9 4.25 4.25 0 0 1-.8.61 2 2 0 0 1 .21-1l.29-.78a52.27 52.27 0 0 0 2.81-9.16A10.54 10.54 0 0 1 239 266c.21-.37.43-.75.63-1.13.33-.63.75-.68 1.34-.75.31 0 .5-.37.69-.73.06-.11.13-.23.19-.32s.25-.4.38-.61a3.57 3.57 0 0 1 .77-1.05 9.73 9.73 0 0 0 2.49-3.3c.22-.41.45-.82.69-1.21a1.41 1.41 0 0 0 .15-1.53c-.46-.68-.29-1 .31-1.42a13.1 13.1 0 0 0 1.91-2.45c.12-.29.25-.58.41-.88a5.66 5.66 0 0 0 .85-3.9 1.18 1.18 0 0 1 .26-.88.48.48 0 0 1 .31-.2h.1c1.12 0 1.41-.93 1.58-1.79A3.81 3.81 0 0 1 253 242a1.21 1.21 0 0 0 .09-1.53 2 2 0 0 1-.15-.35l.06-.12c.27-.27.53-.53.5-.83a3 3 0 0 1 .87-2.62 3.42 3.42 0 0 0 .63-3.8 1.67 1.67 0 0 1 .06-.24v-.11c1.33 0 2.74-.35 3.12-2.74a1.58 1.58 0 0 1 .53-.86 1.56 1.56 0 0 0 .63-1 1.73 1.73 0 0 0-.59-1.22l-.13-.16a.78.78 0 0 1-.07-.33.56.56 0 0 1 0-.08l.12.1a.76.76 0 0 0 .47.17.38.38 0 0 0 .37-.2 2.65 2.65 0 0 0 .13-1.54 5.46 5.46 0 0 1 0-.56c0-.23.12-.35.34-.54a1.07 1.07 0 0 0 .41-1.37.39.39 0 0 0-.41-.23h.02a.36.36 0 0 0 0-.09.49.49 0 0 0-.26-.22c-.06-.09-.12-.17-.17-.26a2.06 2.06 0 0 1-.24-2.11 1.55 1.55 0 0 1 .65-.73 10.09 10.09 0 0 0 2.89-3.44A7 7 0 0 0 264 210a12.13 12.13 0 0 1-.16-1.49 5.63 5.63 0 0 0-1-3.39 2.33 2.33 0 0 1-.07-.76v-1.4a9.67 9.67 0 0 0-.15-2.09 1.86 1.86 0 0 0-.94-1.14 2.52 2.52 0 0 1-.54-.42h.45l-.7-.48v-.06h-.06l-.69-.45.12.37a5.48 5.48 0 0 1-1.18-.6l-.14-.08a3.42 3.42 0 0 0-1.77-.56 2 2 0 0 0-1.54.67 11.9 11.9 0 0 1-.87.87 6.77 6.77 0 0 0-2.32 3.63 5.59 5.59 0 0 1-1.28 3 9.62 9.62 0 0 0-2.81 5 6.15 6.15 0 0 1-.71 1.71 8.69 8.69 0 0 0-1.26 3.37c-.16.95-.43 2-1.13 2a1.3 1.3 0 0 1-.55-.15.79.79 0 0 0-.32-.08c-.34 0-.58.27-.64.72a1.26 1.26 0 0 1-.82 1 4.05 4.05 0 0 0-.35.21 6.9 6.9 0 0 0-3 4.7 40.62 40.62 0 0 0-.58 4.28l-.11 1.07a2.79 2.79 0 0 0 .13 1.46c.82 1.82.53 3.37-.95 5l-.24.25a2.39 2.39 0 0 0-.89 1.78 3.11 3.11 0 0 1-.57 1.77 5.26 5.26 0 0 0-.27.47 12.21 12.21 0 0 0-1.41 4.8v.38a1.54 1.54 0 0 1-.24 1c-1.38 1.62-1 3.54-.66 5.4v.17a2.64 2.64 0 0 0 .15.45.86.86 0 0 1 .09.65 7.66 7.66 0 0 0 .09 4.44v.28a3.43 3.43 0 0 0-.76 3.07v.28a5.71 5.71 0 0 1-.35 2.9 8 8 0 0 0-.51 1.63L232 268c-.67 3.41-1.35 6.93-2 10.41l-.11.66a78.44 78.44 0 0 1-1.88 8.79c-.67 2.23-1.42 4.45-2.15 6.6-.31.92-.63 1.83-.93 2.75a.48.48 0 0 1-.09.16c-1.21 1.25-1.58 3-2 4.74l-.17.77c-.35 1.56-.67 3.13-1 4.69l-.31 1.56a33.85 33.85 0 0 0-.75 5.75 2.42 2.42 0 0 0 .56 1.82 1.4 1.4 0 0 0 1 .43 2 2 0 0 0 .69-.14 2.27 2.27 0 0 0 1-.65l.47-.57a6.88 6.88 0 0 0 1.78-3.27 6 6 0 0 1 1.59-2.94l.1-.12a13.65 13.65 0 0 1 1-1 5.93 5.93 0 0 0 2.28-4.14.62.62 0 0 1 .23-.23 2.9 2.9 0 0 0 1.1-1.46 3.11 3.11 0 0 1 .67-1 1.05 1.05 0 0 0 .33-1.1 5.24 5.24 0 0 1 1.52-5 8.88 8.88 0 0 0 2-4l.34-1.35a31.22 31.22 0 0 1 3-8.47 2 2 0 0 0 .27-.69 27.09 27.09 0 0 1 2.83-7c.51-1 1-2 1.49-3s.94-1.93 1.42-2.85a35.65 35.65 0 0 0 2-4.31c.38-1 .87-2 1.34-3l.25-.5c1.69-3.47 3.6-6.8 5.44-10l.63-1.1a19.3 19.3 0 0 1 3.16-4.52 33 33 0 0 0 3.49-4 14 14 0 0 1 2.23-2.2 19 19 0 0 0 1.71-1.56.5.5 0 0 1 .4-.17 2.73 2.73 0 0 1 .83.21 3.34 3.34 0 0 0 1.11.27h.21a.87.87 0 0 0 .36-.18l.11-.07h.12a.59.59 0 0 1 .46.19 1.81 1.81 0 0 1 .26 1.31c-.05.64-.12 1-.42 1.11a1.45 1.45 0 0 0-.8 1.58 12.53 12.53 0 0 1 0 1.34c0 1.33 0 1.82 2 2.47a1.3 1.3 0 0 1 .56.34 1.21 1.21 0 0 0 .9.49 1.82 1.82 0 0 0 1.2-.71 6.38 6.38 0 0 0 1-1.18 2.89 2.89 0 0 0 .2.47c.06.11.24.44.58.44a.86.86 0 0 0 .57-.3 1 1 0 0 1 .19-.15 3.23 3.23 0 0 1 .62 0c.21 0 .43 0 .64-.05a1 1 0 0 0 .69-.36 1.82 1.82 0 0 0 0-1.38 4.77 4.77 0 0 1-.16-.74 2 2 0 0 1 .46-.12l.5-.06h.37v-.09l.41-.53h-.23a.33.33 0 0 1 .11-.17 1.24 1.24 0 0 0 .37.06c.77 0 1.14-.67 1.46-1.27l.21-.37.05-.18a1.82 1.82 0 0 0 .27-.41c.53-1.26 1.07-1.74 1.9-1.74h.56c1.47 0 2.72-1.06 3.51-3l.27-.62c.21-.48.42-1 .59-1.49 1.31-3.26 1.03-5.11-.75-7.54zm-3.53-5.89h.32a.39.39 0 0 1 .27.15.43.43 0 0 1 0 .35c-.09.42-.34.7-.53.7 0 0-.1-.13 0-.78v-.07zm-43.8-125.81v-.59a4.62 4.62 0 0 0-.39-2.34 10.52 10.52 0 0 1-.69-1.53 7.22 7.22 0 0 0-1.37-2.44 2.18 2.18 0 0 1-.67-1.68 1.93 1.93 0 0 0-1.14-2.21c-.19-.08-.26-.27-.35-.57 0-.13-.08-.26-.13-.38s-.28-.63-.74-.63a1.06 1.06 0 0 0-.67.32c-.28.26-.56.52-.68.52s-.31-.18-.56-.38l-.17-.15a1.72 1.72 0 0 0-1.21-.57H232l-.39.43c-.26.3-.55.63-.85 1l-.14.16c-.07.08-.18.22-.15.23h-.32c-1.39 0-1.75 1.13-2 2a5.15 5.15 0 0 1-1.41 2.31 4.49 4.49 0 0 0-.41.46c-.31.39-.52.63-1 .63h-.2l-.09.17-.27.56a8.25 8.25 0 0 1-.64 1.22 2.43 2.43 0 0 1-1.22 1.07 1.65 1.65 0 0 0-1 1l-.12.25a16.72 16.72 0 0 0-.77 1.87 8.35 8.35 0 0 1-1.55 3 9.83 9.83 0 0 0-2 3.75l-.06.17a25.11 25.11 0 0 0-1.23 4.42c-.05.35-.1.58-.28.63-.87.27-1 1-1.18 1.62a10.07 10.07 0 0 1-1 2.37 9.11 9.11 0 0 0-1.11 2.86 7.87 7.87 0 0 0-1.61 3.59c-.06.23-.12.46-.19.69a2.86 2.86 0 0 1-.55 1c-1.63 1.94-2.1 4.39-2.48 6.36 0 .19-.06.39-.09.58a3.75 3.75 0 0 1-.18.92 4 4 0 0 0-.14.52c-.14.64-.24 1-.89 1-.29 0-.52.36-.58.55-.15.5-.34 1-.52 1.48a14.45 14.45 0 0 0-.91 3.31v.24a3.88 3.88 0 0 1-.24 1.21 21.31 21.31 0 0 0-1.72 8.24 4.57 4.57 0 0 1-.51 1.9 14.57 14.57 0 0 0-1.48 5.34c-.06.61-.08 1.22-.1 1.84a17 17 0 0 1-.23 2.77 25 25 0 0 0-.35 4.7c0 .7 0 1.4-.05 2.1a1.94 1.94 0 0 0 .49 1.43 2.76 2.76 0 0 1 .59 1c.07.16.14.31.22.47a28.79 28.79 0 0 0 2.48 3.67l.13.18a1.91 1.91 0 0 0 1.3.7 1.36 1.36 0 0 1 1.41 1.15c.07.24.14.49.4.49l.22-.06.08-.14a3.13 3.13 0 0 0 .15-.32 1.34 1.34 0 0 1 .07-.18c.06-.13.13-.2.21-.2a.4.4 0 0 1 .22.09 5.52 5.52 0 0 1 .53.43 6.51 6.51 0 0 0 .72.55.75.75 0 0 0 .42.14.54.54 0 0 0 .49-.32 1 1 0 0 0 1.06.76c.67 0 .86-.5 1-.86l.05-.15a4.31 4.31 0 0 1 2.34-2.4 6.44 6.44 0 0 0 1.86-1.13 3.26 3.26 0 0 0 1.31-2.69 5.77 5.77 0 0 1 1.43-4.29l.12-.16c1.76-2.28 1.83-2.37 2.47-5.17.1-.45.21-.67.53-.73a2.64 2.64 0 0 0 2-2.17c.08-.27.18-.55.27-.82a8.08 8.08 0 0 0 .51-2c.07-.74.23-1.13.92-1.2a1.29 1.29 0 0 0 1.09-1.09c.08-.29.16-.58.25-.86a8.91 8.91 0 0 0 .46-2A8.6 8.6 0 0 1 229 139c.3-.52.61-1.06.87-1.63a3.21 3.21 0 0 0 1.53-2.42c0-.19.09-.37.15-.55l.06-.24c.12-.46.21-.74.53-.82a2.22 2.22 0 0 0 1.67-2.17 1.66 1.66 0 0 1 .82-1.29 3 3 0 0 0 1.4-2.37c.09-.46.17-.93.25-1.39.17-1 .34-2 .6-3a60.6 60.6 0 0 0 1.45-8.83c.19-1.82.43-3.42.72-4.89l.25-1.19c.42-2 .86-4.16 1.09-6.26s.32-3.93.41-6.26v-.51c.08-.78.12-1.65.09-2.52zm-13.06 30.08a4.27 4.27 0 0 0-.64 1.28l-.21 1a16 16 0 0 1-.55 2.06 6.8 6.8 0 0 1-1.91 2.42l-.83.8-.16.17a1.63 1.63 0 0 0-.58 1c-.13.7-.3 1.41-.46 2l-.05.23a1.44 1.44 0 0 1-.21.59 6 6 0 0 0-2.07 4c0 .11-.06.23 0 .23a3.15 3.15 0 0 0-1.96 2.48c-.09.31-.17.62-.28.91-.18.46-.33.49-.53.49h-.46c-.57 0-.67.55-.71.81v.13c-.16.7-.35.79-.5.79h-.12a1.66 1.66 0 0 0-1.9.81l-.1.11c-.6.68-1 .93-1.46.93a3.87 3.87 0 0 1-1.56-.49 3.5 3.5 0 0 0-1.08-.27h-.08a9.78 9.78 0 0 0 .32-1.09 1.16 1.16 0 0 0-.25-.92 1.26 1.26 0 0 0-1-.54c-.53 0-.69.43-.79.68l-.1.24a2.08 2.08 0 0 1 .4-1.8 6.88 6.88 0 0 0 1.35-4 5 5 0 0 1 .64-2.61c.5-.9.95-1.84 1.39-2.76a31.4 31.4 0 0 1 2.36-4.33 4.71 4.71 0 0 0 .68-2.25v-.36c.13-.92.37-1.5 1.22-1.73a2.25 2.25 0 0 0 1.66-2.2 12.62 12.62 0 0 1 .62-3.24c.06-.19.12-.37.17-.56a2.5 2.5 0 0 1 .57-1.22 2.37 2.37 0 0 0 .59-1.36 8.38 8.38 0 0 1 1.25-3.43 12.81 12.81 0 0 0 1.1-2.44 3.19 3.19 0 0 1 1.24-2 2.55 2.55 0 0 0 .77-1.37v-.14a2.38 2.38 0 0 1 .86-1.35 2.91 2.91 0 0 0 .81-1.17c.1-.21.19-.43.28-.64a3.32 3.32 0 0 1 1.67-2.08c.43-.19.63-.78.8-1.26a14.33 14.33 0 0 0 .56-2.06 5.12 5.12 0 0 1 3.45-3.87h.11a.16.16 0 0 1 0 .06 1.6 1.6 0 0 0-.34 1 1.23 1.23 0 0 1-.12.59 8.44 8.44 0 0 0-1.27 3.57 14 14 0 0 1-.47 2 2.26 2.26 0 0 0-.1 1.83 1.64 1.64 0 0 0 1.19.7c.15 0 .19.18.24.58 0 .1 0 .2.05.29s.05.26.08.39c.24 1 .31 1.52-.71 1.85a.6.6 0 0 0-.34.68.48.48 0 0 0 .5.43h.18c.38 0 .56.23.82.62a1.63 1.63 0 0 0 .8.75c.69.23.73.52.51 1.26l-.12.41a7.13 7.13 0 0 1-1 2.39 7.29 7.29 0 0 0-.56.92c-.12.23-.24.45-.37.66a5.19 5.19 0 0 0-.65 2 4.38 4.38 0 0 1-.56 1.69 7.25 7.25 0 0 0-1.58 3.37 3.26 3.26 0 0 1-.5 1.34zm93.67-47.25l-.08-.16c-.24-.47-.39-.78-.82-.78a2.41 2.41 0 0 0-.81.23 1.93 1.93 0 0 1-.63.18c-.14 0-.32 0-.6-.39a2 2 0 0 0-1.53-.76 1.2 1.2 0 0 0-1 .42 4.33 4.33 0 0 1-1.33 1 4.65 4.65 0 0 0-1.36 1 8.21 8.21 0 0 1-1.57 1.35 6.33 6.33 0 0 0-2.19 2.23c-1.19.25-1.69 1.21-2.19 2.13l-.05.11a2 2 0 0 1-.86.7l-.16.07a2.35 2.35 0 0 0-1 .7c-.71.92-1.44 1.83-2.16 2.74l-1 1.19-.29.39a5.58 5.58 0 0 1-.51.63 20.43 20.43 0 0 0-4.9 6.29 12.27 12.27 0 0 1-1 1.68l-.38.58a3.52 3.52 0 0 1-.29.4h-.3c-.94 0-1.26.75-1.53 1.35a3.71 3.71 0 0 1-.19.4 46 46 0 0 0-2.16 4.69 55.46 55.46 0 0 1-2.69 5.88c-.84 1.59-1.64 3.27-2.44 5.14a12.5 12.5 0 0 0-.45 1.3 4.62 4.62 0 0 1-1.8 2.93.77.77 0 0 0-.29.47.83.83 0 0 1 0 .15l-1.63 3.66a752.9 752.9 0 0 0-3.63 8.19 49.34 49.34 0 0 0-2.59 8.54c-.13.54-.25 1.08-.39 1.63a34 34 0 0 0-1.24 7.55c0 .8-.06 1.6-.11 2.41a25.88 25.88 0 0 0 0 4.66 17.08 17.08 0 0 1 0 3.2v.11c-.09 1.08-.13 1.58.15 1.88a.88.88 0 0 0 .68.23 9.48 9.48 0 0 0 1.13-.12c.27 0 .53-.08.79-.14h.3c.22 0 .47.06.62.5a7.86 7.86 0 0 0 1.62 2.57 2.6 2.6 0 0 0 2 1 2.9 2.9 0 0 0 .86-.13c1.22-.36 2.43-.78 3.61-1.19l1.57-.54a1.47 1.47 0 0 0 1-1.18c.18-.95.44-1.28 1-1.28a1.89 1.89 0 0 1 .39.05h.16a1 1 0 0 0 .92-.88 3 3 0 0 1 1.68-2.28 2 2 0 0 0 .89-1.23l.1-.24c.11-.27.23-.29.34-.29a1 1 0 0 1 .36.09 1.12 1.12 0 0 0 .35.06c.61 0 .81-.66.9-1a19.36 19.36 0 0 1 1.73-3.82l.76-1.44.22-.46a9.24 9.24 0 0 1 2-3 5.76 5.76 0 0 0 1.64-2.67c.14-.37.28-.75.45-1.11a.85.85 0 0 1 .24-.3 6.36 6.36 0 0 0 1.15-1.17 5.39 5.39 0 0 1 1.05-1.08 10.7 10.7 0 0 0 2.16-2.3 9.79 9.79 0 0 1 2.1-2.25l.08-.06v-.09a7.58 7.58 0 0 1 1.91-2.85c.29-.31.57-.62.84-.94a9.85 9.85 0 0 0 .91-1.43 4.68 4.68 0 0 1 1.84-2.17 1.45 1.45 0 0 0 .55-.84c.59-1.81 1.16-3.62 1.73-5.43a.77.77 0 0 0-.38-1 .51.51 0 0 0-.22 0 1 1 0 0 0-.53.17 8.94 8.94 0 0 0-3.33 4 8.64 8.64 0 0 1-1.95 2.69 11.7 11.7 0 0 0-1.65 2 6.07 6.07 0 0 0-2.72 2.48 10.1 10.1 0 0 1-1.11 1.39l-.29.29c-.33.34-.67.68-1 1-.13.11-.25.23-.37.35a2.49 2.49 0 0 1-1.11.76c-.4.1-.63.54-.87 1a5.08 5.08 0 0 1-.28.51.56.56 0 0 1-.2 0 1.09 1.09 0 0 0-.46-.12.81.81 0 0 0-.71.58c-.26.62-.52 1-1 1.18a1.91 1.91 0 0 0-1.22 1.29 1.14 1.14 0 0 1-.45.56c-1 .09-1.28.81-1.49 1.39a3.35 3.35 0 0 1-.3.63c-.09.13-.23.18-.54.18h-.41a1.26 1.26 0 0 0-1.31.79c0 .09-.2.2-.52.34a.32.32 0 0 1-.18-.05 1 1 0 0 0-.51-.16.93.93 0 0 0-.71.43 4.57 4.57 0 0 1-4.13 2.11h-1.65a11.35 11.35 0 0 0-2.92.31 2.34 2.34 0 0 1-.57.07 1.64 1.64 0 0 1-1.27-.55 1.75 1.75 0 0 1-.32-1.47c.21-1.2.54-2.41.85-3.58l.24-.88c.09-.35.2-.7.31-1a13.66 13.66 0 0 0 .45-1.58 2.72 2.72 0 0 1 .9-1.42 5.12 5.12 0 0 0 .7-.83 4.42 4.42 0 0 0 .64-1.91A5.21 5.21 0 0 1 285 131a1.07 1.07 0 0 1-.14.74 2.08 2.08 0 0 0 .15 2.11 5.6 5.6 0 0 0 3.31 2.33 1 1 0 0 0 .3 0 2 2 0 0 0 1.34-.73c.23-.23.45-.46.67-.7a11.64 11.64 0 0 1 2.37-2.1 4.37 4.37 0 0 0 2.15-3.77 5.46 5.46 0 0 1 1.6-3.32 3.08 3.08 0 0 0 .49-.82c.25-.52.42-.83.79-.85a1.9 1.9 0 0 0 1.91-1.62 5.43 5.43 0 0 1 2.21-2.8c2-1.65 2.06-1.69 3.1-4 0-.06.08-.12.12-.19a2.2 2.2 0 0 0 .17-.25l.81-1.61 1-2c.18-.34.35-.7.53-1a28.7 28.7 0 0 1 1.47-2.73l.1-.16a15.28 15.28 0 0 0 1.68-3.21 3.5 3.5 0 0 1 1.46-1.94 4.76 4.76 0 0 0 2.11-2.93 4.91 4.91 0 0 1 .32-.85c.06-.12.12-.24.17-.37.32-.78.65-1.56 1-2.34.71-1.69 1.44-3.44 2.11-5.18a62.44 62.44 0 0 0 2.2-7.76c.38-1.58.77-3.22 1.23-4.8a3.31 3.31 0 0 0-.23-2.66zm-8 16.66a2.5 2.5 0 0 0-1.12 1.11l-.22.35c-1.28 1.81-2.55 3.64-3.86 5.53a2.44 2.44 0 0 0-.39.71 11.32 11.32 0 0 1-1.66 3 12.9 12.9 0 0 0-1.6 2.78.91.91 0 0 1-.31.46 3.11 3.11 0 0 0-1.38 1.27 3.59 3.59 0 0 1-.69.79 6.15 6.15 0 0 0-1.57 1.87l-.14.22a1 1 0 0 1-.44.41 4.58 4.58 0 0 0-2.49 2.3 5.93 5.93 0 0 1-.73-1.39 4.49 4.49 0 0 0-1.54-2.24 5.87 5.87 0 0 0 1.83-1.53 6.72 6.72 0 0 1 .93-.92 4.52 4.52 0 0 0 1.36-2.49 10.14 10.14 0 0 1 .64-1.57l.3-.63c.26-.58.51-.8.91-.8h.5a2 2 0 0 0 1.84-1.34 2.38 2.38 0 0 1 .25-.39 13.77 13.77 0 0 0 1.39-2 12.79 12.79 0 0 1 1.32-2 11 11 0 0 1 2.41-1.83c.38-.24.76-.48 1.13-.73a5.29 5.29 0 0 0 1.36-1.63l.06-.1a2.85 2.85 0 0 1 2.27-1.26.3.3 0 0 1 .21.08.38.38 0 0 1 .08.28c-.01.94-.15 1.47-.64 1.69zm-22.34-19.22l-.23-.21-1 1.34a31.09 31.09 0 0 0-3.93 6.15l-1.05 2.43c-.62 1.43-1.24 2.87-1.88 4.29a2.23 2.23 0 0 0-.13.39c-.09.31-.15.51-.37.62a2.57 2.57 0 0 1-.38-.54c-.28-.46-.6-1-1.28-1s-1.06-.36-1.28-1.15a5 5 0 0 0-.44-1 1 1 0 0 0-.86-.59 1.3 1.3 0 0 0-.84.37 2.78 2.78 0 0 1-.82.61c-.09 0-.32-.3-.58-.62l-.1-.14a1.4 1.4 0 0 0-.74-.6c-2.42-.82-2.71-1-3.9-3a1.35 1.35 0 0 0-1.22-.82 2.56 2.56 0 0 1-1.49-.65 1 1 0 0 0-.64-.25 1.24 1.24 0 0 0-.85.44.29.29 0 0 1-.14.08c-.07 0-.21-.14-.31-.24a1 1 0 0 0-.69-.36.7.7 0 0 0-.59.36 2.61 2.61 0 0 1-2.27 1.32H263c-.53 0-.66.47-.74.74a1.42 1.42 0 0 1-.07.22l-.18.43a12.19 12.19 0 0 1-1.93 3.45l-.29.32.41.14c1 .35 1.26 1.17 1.53 2.12v.17a2.11 2.11 0 0 1-.31 1.58 3.55 3.55 0 0 0-.21.44c-.21.48-.4 1-.6 1.45-.32.8-.65 1.62-1 2.4-.1.22-.19.45-.29.69a6 6 0 0 1-.92 1.76 12.44 12.44 0 0 0-.37-3.88 12.85 12.85 0 0 1-.36-2.71 3.47 3.47 0 0 0-.5-1.91c-.37-.59-.75-.88-1.15-.88s-.8.29-1.18.9a13.49 13.49 0 0 0-2.26 6.21 11.29 11.29 0 0 1-.9 3.69 10.31 10.31 0 0 0-.76 3.93c-.14 3.9-.09 8.16.16 13.4v.36a10.25 10.25 0 0 0 .69 3.85 3.42 3.42 0 0 1 .21 1.2 6.46 6.46 0 0 0 .07.78 5.93 5.93 0 0 1-.15 2.08 4.89 4.89 0 0 0 .1 3.07 2.7 2.7 0 0 1-.13.3 5.91 5.91 0 0 0-.66 4.24.91.91 0 0 1-.19.63 2.49 2.49 0 0 0-.2.4 2.64 2.64 0 0 0 .25 2.16.85.85 0 0 0 .68.45c.72 0 .9.42 1.14.95.06.13.12.26.19.39a5.18 5.18 0 0 1 .44 1.38 5.54 5.54 0 0 0 .57 1.69 2.68 2.68 0 0 1 .06 1.49c0 .23-.05.45-.06.67 0 .91-.11 2 1.17 2.43.32.12.37.41.41.89v.22a6.81 6.81 0 0 1-.92 3.68c-.17.36-.33.72-.48 1.09-.09.21-.41.91-1 .91a.92.92 0 0 1-.44-.11l-.19-.08-.14.15a1.94 1.94 0 0 1-.84.4c-.65.21-1.46.47-1.5 1.66a.69.69 0 0 1-.63.52.41.41 0 0 1-.19 0 2.14 2.14 0 0 0-.71-.13c-.88 0-1.32.73-1.68 1.32a5.1 5.1 0 0 0-.26.58 1.7 1.7 0 0 1-.49.8 5.77 5.77 0 0 0-.6-.09c-1-.13-1.81-.23-2.07-1.42-.11-.55-.71-.7-1-.79-.69-.17-1-.63-1-1.49v-.28a5.08 5.08 0 0 1 0-1c.22-1.1.45-2.19.68-3.28.39-1.86.79-3.78 1.13-5.68a39.38 39.38 0 0 0 .77-7.61 1.21 1.21 0 0 1 0-.19c0-.34 0-1-.8-1.1a1.2 1.2 0 0 0-1 .78c-.14.31-.31.6-.48.9a6.47 6.47 0 0 0-1 2.79 5.14 5.14 0 0 1-.44 1.57v.11a34.76 34.76 0 0 0-1.93 11.14c-.1 1.94-.09 3.91-.08 5.82v4.15a16.48 16.48 0 0 0 1.11 6.24 3.58 3.58 0 0 0 3 2.66 7.71 7.71 0 0 1 3.91 1.66 1.46 1.46 0 0 0 .91.37.94.94 0 0 0 .86-.56 1.36 1.36 0 0 1 1.44-.79 1.68 1.68 0 0 0 1.55-.92 4.82 4.82 0 0 1 1.44-1.55 4.49 4.49 0 0 0 1.76-2.16.75.75 0 0 1 .41-.2 3 3 0 0 0 2.22-1.75 5.05 5.05 0 0 1 .41-.62 5.64 5.64 0 0 0 1.52-3.66c-.1-1.54.79-2.65 1.67-3.76a3.31 3.31 0 0 0 .79-1.42c.1-.48.21-1 .31-1.45.18-.79.35-1.59.5-2.39a13.14 13.14 0 0 0 .17-1.37 7.37 7.37 0 0 1 .46-2.34 3.06 3.06 0 0 0 .11-1.42v-.5a4.07 4.07 0 0 0-.06-.59 2 2 0 0 1 0-.85 7.33 7.33 0 0 0 .17-3.08 7.56 7.56 0 0 1 .06-2.56v-.13a30.14 30.14 0 0 1-.46-6.35v-1.83a6.23 6.23 0 0 0-.3-1.58 4.31 4.31 0 0 1-.25-1.94 8.64 8.64 0 0 0 0-1.76 9 9 0 0 1 0-1.37c.07-.89 0-1.82 0-2.72v-.85a17 17 0 0 0-.32-3.58 24.06 24.06 0 0 1-.77-7.14v-.24a3.66 3.66 0 0 0-.64-3c-.31-.36-.23-.88-.09-1.53l.36-1.69.51-2.41a11.55 11.55 0 0 1 3.65-6.07l.22.14a2.38 2.38 0 0 0 .9.42c1.81.27 3 1.35 3.74 3.5a1.56 1.56 0 0 0 1 1.12.9.9 0 0 1 .65 1.1 6.9 6.9 0 0 0 0 1.87 3.9 3.9 0 0 1-.47 2.75l-.06.08v.11a2.65 2.65 0 0 1-.26 1.13 2.26 2.26 0 0 0-.12 2 6.06 6.06 0 0 1 .8 2.55 1.38 1.38 0 0 0 .78 1 4.3 4.3 0 0 1 2.61 2.36 1.52 1.52 0 0 0 1.26.86.73.73 0 0 0 .51-.2 6.31 6.31 0 0 1 .86-.62 3.5 3.5 0 0 0 1.75-2c.25-.88.53-1.74.81-2.61a33.09 33.09 0 0 0 1.29-4.69 31.52 31.52 0 0 1 2.06-6.69l.81-1.94c.87-2.08 1.74-4.17 2.62-6.24.4-1 .82-1.9 1.24-2.85.66-1.5 1.34-3.06 2-4.61s1.15-3.13 1.66-4.68l.25-.76a2.18 2.18 0 0 0-.54-2.54zm-37.91 37.55v.22a3.44 3.44 0 0 0 .28 2.17 2.8 2.8 0 0 1 0 2.3.32.32 0 0 1-.16.21 30.94 30.94 0 0 1-.17-5.12v-.58a1.42 1.42 0 0 1 .05.8zM207.88 94a1.75 1.75 0 0 1 0-1.31 2.51 2.51 0 0 0-.63-2.72c-.15-.18-.32-.35-.48-.52a5 5 0 0 1-1.19-1.73c-.76-2.33-2.74-3.43-5.06-4.53a1.35 1.35 0 0 0-.53-.12.73.73 0 0 0-.57.24 1.38 1.38 0 0 1-1.12.44c-.23 0-.45 0-.67-.05h-.68a8.32 8.32 0 0 0-2.21.39 11.19 11.19 0 0 1-1.14.29h-.18a5.84 5.84 0 0 1-1.05.14 2.48 2.48 0 0 1-.71-.1 4.75 4.75 0 0 0-1.2-.17 3.45 3.45 0 0 0-2.73 1.35 48 48 0 0 0-4.34 6.4c-.28.46-.55.92-.83 1.37a42.76 42.76 0 0 0-4.39 9.65 6 6 0 0 1-.72 1.43c-.17.28-.35.56-.49.85l-1 1.91c-1 1.91-2 3.89-2.91 5.87a6.52 6.52 0 0 1-1.92 2.65 3.44 3.44 0 0 0-1.11 1.49l-.14.29c-.18.37-.32.77-.46 1.15a4.4 4.4 0 0 1-1.12 2 7.51 7.51 0 0 0-2 3.19 24.13 24.13 0 0 1-2.69 5.91 4.8 4.8 0 0 0-.54 1.23c-.06.18-.12.36-.19.53l-.07.18c-.27.68-.54 1.36-.8 2v.14c-.12.33-.19.45-.32.45-1.11 0-1.34.7-1.53 1.31l-.07.22a31.7 31.7 0 0 0-1.35 4.82 25.76 25.76 0 0 1-1.21 4.08l-.23.63a22 22 0 0 0-.94 5c-.06.59-.13 1.19-.21 1.79a51.42 51.42 0 0 0-.68 10.49v.11a2.17 2.17 0 0 0 .67 1.78 2 2 0 0 1 .74 1.52c0 .22.07.45.13.67l.06.23c.28 1.07.63 2.4 2.45 2.47.38 0 .54.25.79.65l.15.24a3.05 3.05 0 0 0 2.4 1.61 6.17 6.17 0 0 1 2.73.87 3.68 3.68 0 0 0 1.59.45 2.18 2.18 0 0 0 1.85-1.16 7.22 7.22 0 0 1 2.46-2.21 4.87 4.87 0 0 0 2.25-2.47c.09-.22.16-.44.23-.66a3.35 3.35 0 0 1 1.71-2.38.89.89 0 0 0 .41-.6 1.13 1.13 0 0 1 .08-.22c.46-.91.89-1.83 1.32-2.76.59-1.26 1.2-2.57 1.88-3.81a17.89 17.89 0 0 0 .8-1.73 13.1 13.1 0 0 1 1.12-2.25 6.69 6.69 0 0 0 .69-1.49 4 4 0 0 1 1.42-2.18.61.61 0 0 0 .22-.44 17.7 17.7 0 0 1 1.61-4.81c.37-.82.75-1.67 1.05-2.53a4.91 4.91 0 0 1 1.08-1.95 3.8 3.8 0 0 0 1.08-2.23 7.28 7.28 0 0 1 .59-1.66 11.38 11.38 0 0 0 .93-3.08 19.62 19.62 0 0 1 1.3-4.73l.33-.7a17.06 17.06 0 0 0 1.48-4 .68.68 0 0 1 .72-.49 1.31 1.31 0 0 1 .52.12 1.44 1.44 0 0 1 .45.23c.72 1.42 2.11 1.57 3.33 1.7h.31a1 1 0 0 0 .76-.36 1 1 0 0 0 .18-.84 6.44 6.44 0 0 0-6.18-4.57 7.28 7.28 0 0 0-.93.07 1.25 1.25 0 0 0-1.13 1.41v.13a1.06 1.06 0 0 0 .08.49c.59 1.21.22 2.09-1.21 2.87a3 3 0 0 0-1.43 1.79 9.87 9.87 0 0 1-.41 1c-.13.3-.26.61-.37.92a19 19 0 0 1-1.39 2.87 19.86 19.86 0 0 0-1.45 3.05 25.06 25.06 0 0 1-3.93 7.58 3 3 0 0 0-.49 1.15c0 .13-.07.26-.11.39a9.85 9.85 0 0 1-2.46 4.06 2.74 2.74 0 0 0-2.08 1.82 2 2 0 0 1-.91.82 2.38 2.38 0 0 0-1.14 1.12h-.57a1.35 1.35 0 0 1-.31-.07 1.59 1.59 0 0 0-.5-.1 1 1 0 0 0-.67.29h-.05l-.19.56c-.14.38-.28.78-.44 1.17s-.32.46-.38.46a1.64 1.64 0 0 1-.68-.3 4.09 4.09 0 0 0-1.91-.81c-.62 0-1.15.42-2 1.1l-.1.19a.8.8 0 0 1-.19.16h-.11a.15.15 0 0 1-.15-.11v-.16a1.79 1.79 0 0 1 0-.94 16.1 16.1 0 0 0 1.23-3.66 20.91 20.91 0 0 1 .87-2.86l.08-.2a15.16 15.16 0 0 0 1.59-5.95 1.2 1.2 0 0 1 .19-.59 10.76 10.76 0 0 0 1.29-3.85c.06-.32.13-.64.2-1 .15-.67.31-1.34.47-2a38.42 38.42 0 0 0 1.16-6.47 8.11 8.11 0 0 1 .6-2.46c.19-.5.38-1 .56-1.51a29.88 29.88 0 0 1 1.71-4.06 15 15 0 0 0 1-2.46l.36-1a4.1 4.1 0 0 0 .14-.5 1.67 1.67 0 0 1 .25-.65 20.36 20.36 0 0 0 3.08-6.47 39.74 39.74 0 0 1 3.1-6.87 16.21 16.21 0 0 1 1.73-2.58 11.4 11.4 0 0 0 2.25-3.68 12.73 12.73 0 0 1 2-3.46c.29-.39.58-.78.85-1.18.47-.71.64-.86.95-.86a6 6 0 0 1 1.45.38h.15a1.68 1.68 0 0 0 .47.06h.55a1.61 1.61 0 0 1 .93.44c1 .72 1 .75.49 1.51a2.43 2.43 0 0 0-.45 1.68 3.28 3.28 0 0 0-1.38 1.47 1.09 1.09 0 0 0-.11.88c.13.3.42.51 1 .73.18.07.31.16.33.24s0 .19-.08.25a.84.84 0 0 1-.33.17c-.3.12-.91.35-.63 1.13.15.38.06.57-.33 1l-.4.45c-.79.9-1.7 1.91-1.37 3.44 0 .1-.15.36-.27.54a3 3 0 0 0-.29.48 5.59 5.59 0 0 0-.84 4.07 2.37 2.37 0 0 1-.46 2.61 1.52 1.52 0 0 0-.2 1.52l.05.25a6.31 6.31 0 0 0 .18.72c.22.73.4 1.36-.21 2-.24.25-.1.67 0 1.08l.06.17a3.49 3.49 0 0 0 2.64 2.45 5.18 5.18 0 0 1 1.8.88 4.11 4.11 0 0 0 .82.39 2.6 2.6 0 0 1 1 .56 5 5 0 0 0 2.33 1.12.82.82 0 0 0 .26 0 .66.66 0 0 0 .66-.62 1.66 1.66 0 0 0-.09-.63.64.64 0 0 0-.64-.44h-.15a6.94 6.94 0 0 1-1.42-.68 1.47 1.47 0 0 1 .09-.41c.78 0 1.57.13 2.35.23a1 1 0 0 1 .45.31 1.25 1.25 0 0 0 .84.45.91.91 0 0 0 .54-.19 1 1 0 0 0 .47-.65 1.2 1.2 0 0 0-.37-.9c-.14-.17-.28-.35-.27-.5 0-.52.06-.59.34-.59h.16a3.53 3.53 0 0 0 .51 0 .6.6 0 0 0 .54-.24c.15-.26 0-.6-.28-1.08-.18-.3-.13-.44-.11-.49s.31-.4 1.1-.63c.38-.11 1-.28.81-1a8.67 8.67 0 0 0-.39-1.29 4.37 4.37 0 0 0-.25-.48 1.53 1.53 0 0 1-.25-.57 1.44 1.44 0 0 1 .23-.13 1.16 1.16 0 0 0 .7-.62 2.94 2.94 0 0 1 1.6-1.76l.54.51-.09-.69h.09l-.11-.14-.11-.33h-.11a.9.9 0 0 1 0-.45q.07-.27.18-.54a3.36 3.36 0 0 0 .28-1.32 8.13 8.13 0 0 1 .8-3.67 2.92 2.92 0 0 0-.05-3 1 1 0 0 1 .19-1.3 2.14 2.14 0 0 0 .73-2.46zm-8.7 21.33s.11 0 .14.18a.57.57 0 0 1-.1.11.21.21 0 0 1-.14-.1s-.05-.09 0-.14a.23.23 0 0 1 .1-.04zM170.4 393.64c-.14.16-.39.42-.43.45a1.19 1.19 0 0 0-.44-.09c-.63 0-1.06.53-1.47 1l-.07.1-.06-.52.38-.46h-.62a5.38 5.38 0 0 0-1.58.39 4.56 4.56 0 0 1-1.46.35h-.25a1.24 1.24 0 0 0-.72.34l-.26.19a10.73 10.73 0 0 0-2.1 1.75c-.35.35-.7.7-1.06 1a3.15 3.15 0 0 1-1.15.56l-.19.07c-.47.16-.64.66-.78 1.09a1.93 1.93 0 0 1-.31.66l-.15.15a1.07 1.07 0 0 1-.37.28c-.55 0-.86.46-1.13.88a2.72 2.72 0 0 1-.42.53 3.43 3.43 0 0 0-1.14 2.2 1.5 1.5 0 0 1-.33.64 3.32 3.32 0 0 0-.26.36 2.77 2.77 0 0 1-.63.73 2.88 2.88 0 0 0-1 1.44 2.5 2.5 0 0 1-.65 1 2.9 2.9 0 0 0-.84 1.56c0 .21-.46.48-.64.59a6.19 6.19 0 0 0-2.51 3.25 3.74 3.74 0 0 1-.82 1.39 7.53 7.53 0 0 0-.77 1.11l-.22.38a2.79 2.79 0 0 0-.32 2.34l.05.15c.15.55.35 1.22.94 1.25a.37.37 0 0 1 0 .3c-.1.27-.2.54-.29.81a4.2 4.2 0 0 1-1.22 2.14c-1.83 1.44-2.81 3.79-2.82 6.8a21.41 21.41 0 0 1-.21 2.52c0 .38-.1.77-.13 1.15a1.58 1.58 0 0 1-.57 1.15 1.93 1.93 0 0 1-.62.33 2.35 2.35 0 0 0-1.52 2.41 2.49 2.49 0 0 1-.53 1.32l-.26.33a2.33 2.33 0 0 0-.59 1 10.74 10.74 0 0 1-.94 2.6 12.41 12.41 0 0 0-.92 2.47 2.33 2.33 0 0 1-.68 1.38 2.32 2.32 0 0 0-.56 2.91 11.1 11.1 0 0 0 .64 1.19l.24.4c-.05.21-.09.42-.13.64-.27 1.28-.52 2.49-1.42 3.13a2.34 2.34 0 0 0-.6 2.06 5.63 5.63 0 0 1-.92 4 4.88 4.88 0 0 0-.65 2.64c0 .29 0 .57-.06.87a2.71 2.71 0 0 1-.49 1.14 3.44 3.44 0 0 0-.67 2v.57a3.54 3.54 0 0 1-.42 2 10.61 10.61 0 0 0-1.34 3.71v.2a3.08 3.08 0 0 1-.44 1.11 4.12 4.12 0 0 0-.74 3.82 1.85 1.85 0 0 1-.1 1.4 8.5 8.5 0 0 0-.77 2.19 9.21 9.21 0 0 1-.65 1.94 3.11 3.11 0 0 0-.24 1.19c0 .18 0 .37-.06.54a1.56 1.56 0 0 0 .48 1.42l.11.12a.68.68 0 0 0 .53.26 1 1 0 0 0 .76-.47 9.65 9.65 0 0 0 .56-.81 9.57 9.57 0 0 1 .55-.81 4.45 4.45 0 0 0 .35-.58c.15-.27.36-.67.51-.67s.13 0 .32.22a.45.45 0 0 0 .32.14c.1 0 .4 0 .74-.79.14-.31.26-.64.39-1a9.3 9.3 0 0 1 .61-1.45 42.64 42.64 0 0 0 2.63-6.1c.53-1.43 1.07-2.9 1.7-4.27.51-1.11.92-2.33 1.33-3.51.18-.54.37-1.09.56-1.62s.38-1 .58-1.5a31.4 31.4 0 0 0 1.17-3.39 30.33 30.33 0 0 1 3.64-9.09 1.85 1.85 0 0 0 .39-1.46c-.07-.41 0-.47 0-.47a3.56 3.56 0 0 0 1.06-1.75 8.33 8.33 0 0 1 .32-.8c.29-.6.55-1.25.8-1.89a13.85 13.85 0 0 1 1.63-3.24 14.51 14.51 0 0 0 2.34-5.1 5.34 5.34 0 0 1 .38-.91 39.65 39.65 0 0 1 3.58-5.24l.42-.53a11.83 11.83 0 0 0 2.24-3.73 10.22 10.22 0 0 1 1.45-2.9c.31-.41.61-.84.91-1.27s.52-.76.79-1.13a2.37 2.37 0 0 0 .42-1.75c0-.32-.17-1.25-.17-1.25l.12-.09c.18-.12.33-.24.49-.37l.32-.23a1.91 1.91 0 0 0 1-1.27 3.92 3.92 0 0 1 1-1.88 3.74 3.74 0 0 0 1-2.34c0-.82.36-1 .63-1.1 1.08-.33 1.73-1.29 1.91-2.85a1 1 0 0 1 .18-.46 6.45 6.45 0 0 0 1.66-2 6.85 6.85 0 0 1 1.34-1.69 1.66 1.66 0 0 0 .42-1.76 8.93 8.93 0 0 0-1.27-3.09 2 2 0 0 1-.42-.94 8.5 8.5 0 0 1 .46-2.08.51.51 0 0 1 .56-.36.61.61 0 0 0 .5-.22 1 1 0 0 0 0-.89 2.19 2.19 0 0 0-.23-.5.71.71 0 0 1 .06-.74l.06-.09.1.12a.6.6 0 0 0 .46.32c.4 0 .44-.52.47-.79l.16-1.9-.53.45c-.09.29-.24.45-.39.6zm12.6-29.8l-.08-.33h-.12a1.55 1.55 0 0 1 0-.22c0-.19 0-.39.05-.58a4.2 4.2 0 0 0 0-1.37 1 1 0 0 0-.56-.62c-.24-.16-.38-.26-.42-.43l-.23-.91-.29.81a10.63 10.63 0 0 1-1.78.18 5.24 5.24 0 0 1-1.62-.24 1.93 1.93 0 0 0-.63-.12 1.22 1.22 0 0 0-1.17.87 2.65 2.65 0 0 1-1 1.5 2.13 2.13 0 0 0-.34-.38 1.18 1.18 0 0 1-.25-.25 1.73 1.73 0 0 0-1.46-.68 1.44 1.44 0 0 0-1 .34 24.29 24.29 0 0 0-4.11 5.14 3.66 3.66 0 0 0-.06 3.95 1 1 0 0 0 .87.61 1.09 1.09 0 0 0 .26 0 3.37 3.37 0 0 1-.64.91 1.65 1.65 0 0 0-.49 1.48 2.81 2.81 0 0 1-.13 1.71 1.59 1.59 0 0 0 .13 1.17.91.91 0 0 0 .91.51h.26l.05-.28v.28a.31.31 0 0 1 0 .17c0 .5 0 1 .67 1a4.24 4.24 0 0 0 .61-.06h.2a.66.66 0 0 0 .61.47 1.16 1.16 0 0 0 .34-.06 3.13 3.13 0 0 1 1-.21h.42a4.17 4.17 0 0 0 3.35-1.78 21.7 21.7 0 0 1 1.81-1.9c.34-.33.67-.66 1-1l.38-.39a4.4 4.4 0 0 0 1.72-3c0-.31.16-.49.45-.78l.15-.16a4.11 4.11 0 0 0 1.18-3.05v-2.27zM129.29 21.49c-.45-1-1.07-2.09-2.19-2.09a3.13 3.13 0 0 0-1.4.41 3 3 0 0 0-1.12 1 2.36 2.36 0 0 1-1.9 1.31 2.87 2.87 0 0 1-1.47-.5l-.12-.06H121a.58.58 0 0 0-.19 0h-.31l-.06.15a12.42 12.42 0 0 1-.9 1.62 8.32 8.32 0 0 0-1.32 2.86 9.75 9.75 0 0 0-1.62 2.7 13.44 13.44 0 0 1-1.06 2 3.11 3.11 0 0 0-.66 2 4 4 0 0 1-.58 2.2 2.79 2.79 0 0 0-.44 1.75 3.82 3.82 0 0 1-.92 2.92l-.1.16a38.48 38.48 0 0 0-3 5.33l-1.67 3.9c-.55 1.31-1.11 2.62-1.67 3.93-.08.16-.15.33-.22.5a5.93 5.93 0 0 1-1 1.84 13.4 13.4 0 0 0-2 3c-.3.55-.6 1.12-.94 1.65a6.31 6.31 0 0 0-.38.73 3 3 0 0 1-.52.9 15.58 15.58 0 0 0-2.89 4.4 25.56 25.56 0 0 1-1.31 2.41A38.21 38.21 0 0 0 94.45 74a10 10 0 0 1-1.62 2.41A9.73 9.73 0 0 0 91 79.24a.66.66 0 0 1-.31.16.61.61 0 0 1-.24-.41 18.06 18.06 0 0 1 .32-5.64q1.36-5.05 2.77-10.09l.65-2.38c.24-.85.47-1.71.7-2.57.57-2.11 1.15-4.29 1.81-6.4a57.25 57.25 0 0 0 1.9-7.48c.13-.82.28-1.64.43-2.46a53.86 53.86 0 0 0 1.07-8.17v-.14a2.72 2.72 0 0 1 .24-1.32 2.53 2.53 0 0 0-.06-2.72 7.68 7.68 0 0 1-.32-.82v-.15h-.15c-.75-.26-.75-.6-.54-1.58a2 2 0 0 0-.33-1.75 1.9 1.9 0 0 0-1.52-.66 2.72 2.72 0 0 0-.55.06 6.6 6.6 0 0 0-.77.23l-.18.07-.31-.42c-.3-.41-.6-.82-.91-1.21a6.35 6.35 0 0 0-5-2.36 6.49 6.49 0 0 0-2 .32 6.58 6.58 0 0 0-1.19-.11A16 16 0 0 0 80 23.13a113.74 113.74 0 0 0-13.77 7.68h-.18a21.51 21.51 0 0 0-13.64 10.13l-1.58 2-.45.57.45.35.44-.57a20.42 20.42 0 0 1 5.45-4.69A19.78 19.78 0 0 1 45.68 48c-.89.29-1.91.75-1.92 1.73a.66.66 0 0 0 .19.51 1 1 0 0 0 .45.23L28.68 79.75c.19-1.54.46-3.1.81-4.65 1.57-3.15 3.16-6.28 4.74-9.41l4.63-9.12-.5-.27-2.36 4-.49-.24a42.54 42.54 0 0 0-4.17 7.52l-.63.9c-.78 1.12-1.59 2.28-2.33 3.45a21.91 21.91 0 0 0-2.93 6.67c-2.45 4.53-4.75 9.14-6.82 13.71a216.88 216.88 0 0 0-15.4 47.84c-1 5.26-1.76 10.76.14 15.47a1.91 1.91 0 0 1-.45.95 1.5 1.5 0 0 0-.15 1.32 3.6 3.6 0 0 1 0 2.49 3.42 3.42 0 0 0 0 1.83l.09.43a12.58 12.58 0 0 0 .57 2 9.66 9.66 0 0 1 .7 2.36 1.33 1.33 0 0 0 1.08 1.2c1.23.35 1.45 1.3 1.7 2.39 0 .23.11.46.17.69a1.17 1.17 0 0 1-.29.76c0 .08-.09.08-.12.08a1.33 1.33 0 0 1-.34-.09l-.22-.03a.85.85 0 0 0-.26-.05.53.53 0 0 0-.41.18.79.79 0 0 0-.15.61c0 .14.12.86.52 1A3.61 3.61 0 0 1 7.53 175a3.46 3.46 0 0 0 2.61 1.52h.19l.12.15a1.64 1.64 0 0 0 .29.35 1 1 0 0 1 .29.76 2.26 2.26 0 0 0 .15.65 1.77 1.77 0 0 0 1.11 1.13 2.23 2.23 0 0 0 .55.07c.21 0 .42 0 .63-.05s.39 0 .58 0a1 1 0 0 1 1 .63.48.48 0 0 0 .44.21h.18a6.63 6.63 0 0 1 2.09-.34c.36 0 .71 0 1.07-.08a3.71 3.71 0 0 0 2.17-1.49 4.07 4.07 0 0 1 1.64-1.24 1 1 0 0 0 .62-.83 1.68 1.68 0 0 1 .07-.24c.18-.48.26-.65.34-.65a2.68 2.68 0 0 1 .64.18 6.85 6.85 0 0 0 2 .49c.93 0 1.48-.64 2.27-1.7a2.91 2.91 0 0 1 1.57-1.19 11.85 11.85 0 0 0 5.2-3.32l.13-.11a1.55 1.55 0 0 1 .24-.2 6.28 6.28 0 0 1 .92.15c.24.05.47.1.71.13a5.62 5.62 0 0 0 .7.05 3.38 3.38 0 0 0 3.34-2.31 5.25 5.25 0 0 1 2.15-2.83 3.17 3.17 0 0 0 1.46-2.11c.07-.25.13-.52.19-.79a3.5 3.5 0 0 1 .63-1.66c.53-.56 1-1.16 1.5-1.75a14.53 14.53 0 0 1 3.16-3.15 15 15 0 0 0 4.72-5.38 10.49 10.49 0 0 1 .91-1.29 7.49 7.49 0 0 0 1.4-2.35 4.72 4.72 0 0 0 1.81-2.71l.1-.27a1.16 1.16 0 0 1 .81-.71 1.51 1.51 0 0 0 1-.85 17.93 17.93 0 0 1 1.44-2.22c.37-.51.75-1 1.09-1.6s.53-1 .76-1.43a7.1 7.1 0 0 1 2.35-3.15 2.46 2.46 0 0 0 .73-1.5v-.16c.43-1.77.83-3.55 1.23-5.34l.42-1.88a4.7 4.7 0 0 0-.06-2.59 1.63 1.63 0 0 0-1.51-1.17 1.34 1.34 0 0 0-.93.36l-.17.15a6 6 0 0 0-1.55 1.75 9 9 0 0 1-3.36 3.91l-.1.06v.12a1.71 1.71 0 0 1-.71.88 2.44 2.44 0 0 0-.86.94c-.5 1.05-.56 1.08-1.94 2l-.44.28a1.29 1.29 0 0 0-.49.51c-.28.61-.81.71-1.42.83a3.58 3.58 0 0 0-1 .29 2 2 0 0 0-.86 1.27 2.11 2.11 0 0 1-.73 1.17l-.23.12a7.08 7.08 0 0 0-3.56 4.19c-.2.61-.44.87-.85.87-1.12 0-1.39.77-1.5 1.44-.15.88-.44 1-.7 1a1.41 1.41 0 0 1-.61-.17.79.79 0 0 0-.23 0 .9.9 0 0 0-.58.22l-.3.3a4.81 4.81 0 0 0-1 1.2c-.13.24-.25.26-.37.26a2.15 2.15 0 0 1-.34-.05 3.59 3.59 0 0 0-.46 0 1 1 0 0 0-.73.27l-.09.08a7.23 7.23 0 0 0-1.9 2.19 3 3 0 0 0-1.28-.58c-.54 0-.7.53-.94 1.32a4.25 4.25 0 0 1-.5 1l-.08.14c-.22.38-.41.51-.76.51h-.29a8.08 8.08 0 0 0-1.05-.11c-1 0-1.29.56-1.77 1.63l-.17.37c-.41 1-.77 1.82-2 1.82h-.2a1.49 1.49 0 0 0-.88.48 1.06 1.06 0 0 1-.75.15 3.14 3.14 0 0 1-.77-.14 2 2 0 0 0-.52-.06h-1.54a1.6 1.6 0 0 0-1.83 1.36l-.1.1-.46-.06c-1.18-.13-2.3-.26-2.8-1.51q-.12-.33-.21-.66a3.86 3.86 0 0 0-.46-1.18c-.85-1.29-.73-2.32.41-3.54 1.59-1.69 2-3.34 1.39-5a1.21 1.21 0 0 1 .08-1.07 12.3 12.3 0 0 0 1.59-5.31 4.49 4.49 0 0 1 .56-1.48l.22-.46c.22-.47.45-.93.69-1.39.34-.67.69-1.37 1-2.08l.07-.16a2.61 2.61 0 0 0 .2-2.43c-.05-.1-.15-.28.25-.56l.2-.13a2 2 0 0 1 .86-.44 1.76 1.76 0 0 0 1.65-1.24 6.07 6.07 0 0 0 .75-3.58 2.88 2.88 0 0 1 .19-1.69 5.35 5.35 0 0 0 .43-3.63 2.24 2.24 0 0 1 1.44-2.78 2.33 2.33 0 0 0 1.54-3.18c-.12-.48-.17-1.08.33-1.31a2.4 2.4 0 0 0 1.34-2l.05-.18q.07-.34.18-.69a9.65 9.65 0 0 0 .43-2.55 1.37 1.37 0 0 1 .9-1.45 2.44 2.44 0 0 0 1.55-1.62v-.11a7.21 7.21 0 0 0 .3-.77 5.32 5.32 0 0 1 .61-1.3 3.55 3.55 0 0 0 .48-1.28 3.62 3.62 0 0 1 .49-1.25 5.29 5.29 0 0 0 .71-1.83l.15-.57a1.6 1.6 0 0 1 .86-1 4 4 0 0 0 2-3.11h.29l-.05-.29a1 1 0 0 0 .55-1.1 1.36 1.36 0 0 1 .69-1.7 5.24 5.24 0 0 0 2-3.36l.43.13L48 84c.26-.22.48-.41.39-.67a1.65 1.65 0 0 1 1-2.31 1.15 1.15 0 0 0 .58-.84 2.17 2.17 0 0 1 .07-.24 13 13 0 0 0 .89-3.7v-.2a2.33 2.33 0 0 1 .31-1.22 8.69 8.69 0 0 0 .59-1.13c.45-1 .88-1.88 2.11-2.16.37-.08.58-.5.78-.87l.06-.13c.15-.27.27-.54.4-.81a6.54 6.54 0 0 1 .57-1.12l.16-.26c.34-.55.63-1 1.31-1h.22a1.52 1.52 0 0 0 1.27-.81c.5-.79 1-1.56 1.55-2.33.75-1.1 1.52-2.24 2.23-3.39A7.29 7.29 0 0 1 64 59a4.09 4.09 0 0 1 .93-.51c.73-.32 1.55-.68 1.72-1.77a3.55 3.55 0 0 1 .51-.12 2.08 2.08 0 0 0 1.65-1.34 7.08 7.08 0 0 1 2.14-2.52 14 14 0 0 0 1.26-1.18 1.3 1.3 0 0 1 .68-.41 2.45 2.45 0 0 0 .46 0c1.28 0 1.84-.93 2.34-1.76l.2-.32a6.18 6.18 0 0 0 1-2.34 1 1 0 0 1 .39-.62 3.47 3.47 0 0 0 2.11-2 2.33 2.33 0 0 1 2-1.3c1.24-.09 2-.55 2.3-1.35a2 2 0 0 1 2.23-1.4h.44a4.71 4.71 0 0 0 .53 0 3.55 3.55 0 0 1 .46 0 1.14 1.14 0 0 1 .26 0h.34a1.78 1.78 0 0 0 1.41-.68 2.27 2.27 0 0 1 1.73-1 2.57 2.57 0 0 1 .86.17 1 1 0 0 0 .4.07 3.37 3.37 0 0 0 .83-.15l.26-.06a10.29 10.29 0 0 1 .7 4.05c0 .52 0 1 .09 1.55a10.07 10.07 0 0 1 0 1.45 5.35 5.35 0 0 0 .36 2.93 2.12 2.12 0 0 1-.12 1.13q-.81 2.91-1.67 5.8a14.69 14.69 0 0 0-.8 4.37 8 8 0 0 1-.42 2.61c-1 3.25-2.06 6.6-3.12 10.26-.36 1.23-.84 1.7-1.73 1.7h-.48a1.82 1.82 0 0 0-1.84 1.47 7.69 7.69 0 0 1-.78 1.54l-.19.31a26.68 26.68 0 0 0-2.89 5.93 22.54 22.54 0 0 1-1.55 4 2.78 2.78 0 0 0-.45 1.49 6.59 6.59 0 0 1-.62 3 2.8 2.8 0 0 0 .42 2.89l.73.93.2.25-.09.26a8.16 8.16 0 0 1-.34.84 2.75 2.75 0 0 1-.35.45c-.1.12-.2.23-.29.36a1.09 1.09 0 0 0-.21 1.13.93.93 0 0 0 .88.48 2 2 0 0 1 1.58.93l1.35 1.66.15.18h-.09l.52.53h.13a3.6 3.6 0 0 1 1.52.53l.33.17a.67.67 0 0 0 .28.06.82.82 0 0 0 .75-.55.72.72 0 0 0-.33-.76l-.28-.11c-.31-.1-.31-.13-.3-.22s.09-.26.56-.37a.86.86 0 0 0 .73-1.08 3.72 3.72 0 0 1 .44-.16c.61-.21 1.45-.48 1.18-1.76a.39.39 0 0 1 .09-.33.62.62 0 0 1 .48-.25C89.41 98 89.67 97 89.83 96a47.32 47.32 0 0 1 2.33-9.22 12.77 12.77 0 0 1 1.28-2.39A10.22 10.22 0 0 0 95 81.13c0-.17.33-.4.42-.47a7.6 7.6 0 0 0 2.25-3.61 19.79 19.79 0 0 1 2.47-5.05 13.67 13.67 0 0 0 1.48-2.39 10.6 10.6 0 0 1 2.5-3.45 14.59 14.59 0 0 0 3.88-6.34l.15-.48a4.59 4.59 0 0 1 .28-.79l.19-.4c.6-1.25 1.17-2.44 2.59-2.91a2.31 2.31 0 0 0 1.21-1.1l.09-.15c.14-.21.26-.44.38-.66.43-.8.8-1.49 1.87-1.55.47 0 .83-.75.93-1 1-2.14 2.86-3.14 5.94-3.14 1.61 0 2.74-.3 3.43-1.79a5 5 0 0 1 .64-.93q.24-.3.45-.6l.1-.15a2.16 2.16 0 0 0 .56-1.56 1.34 1.34 0 0 0-.72-.91.78.78 0 0 1 .21-.33l.11-.13c.2-.22.33-.35.57-.35h.11c1.21 0 1.47-.9 1.56-1.58a3.09 3.09 0 0 1 .65-1.6 3 3 0 0 0 .63-2.25 9.19 9.19 0 0 1 .74-3.6c.47-1.21 1-2.35 1.51-3.3a2.89 2.89 0 0 0 .47-1.62c-.32-2.16-.95-4.33-3.36-5.45zm-77.58 30.8a1.11 1.11 0 0 0-1 .58c-.31.5-.68 1-1 1.47a16.64 16.64 0 0 0-1.1 1.66c-.32.54-.67 1.07-1 1.59A15.88 15.88 0 0 0 45.32 62a2.67 2.67 0 0 1-.61 1.07 19.12 19.12 0 0 0-2.13 2.86l-.18.27a9.26 9.26 0 0 1-.75 1 8.65 8.65 0 0 0-.9 1.17 8.3 8.3 0 0 1-.51.7 4.07 4.07 0 0 0-1 2c-.06.46-.39.71-.77 1a2.62 2.62 0 0 0-.91 1c-.15.32-.32.62-.5.93a6.35 6.35 0 0 0-.91 2.28 1.44 1.44 0 0 0-.9.61 1.14 1.14 0 0 0 0 .94 2.2 2.2 0 0 0 .42.69 3.79 3.79 0 0 0-.94 1.42 3.6 3.6 0 0 1-.83 1.26A6.78 6.78 0 0 0 32 84a2.34 2.34 0 0 1-.61 1c-1.32.82-1 1.84-.42 2.72.12.21.27.41.41.61l.07.09c.14.19.27.48-.15.81a10.59 10.59 0 0 1-1 .63l-.71.46a3.21 3.21 0 0 0-1.65 2 1.79 1.79 0 0 1-.65.93 2.7 2.7 0 0 0-.75 1 1.75 1.75 0 0 1-1.69 1.14 1.7 1.7 0 0 0-1 .35c.28-1.38.53-2.82.73-4.32l.12-.93-.62.71c-2.84 3.27-3.93 7.66-4.89 11.53-.24 1-.59 2.11-.94 3.17l-1.11 1.45.1 1.11c-.52.53-1.07 1.06-1.61 1.57-.68.66-1.38 1.33-2 2a26.25 26.25 0 0 1 1.55-4c.41-.93.84-1.89 1.19-2.86a226 226 0 0 1 9-21.3 10.34 10.34 0 0 0 .41 1.5l.11.29.28-.13a15.58 15.58 0 0 0 7.21-7.22c.45-1 .81-2 1.16-2.93a26.53 26.53 0 0 1 1.42-3.4 27.41 27.41 0 0 1 1.79-2.74 26.13 26.13 0 0 0 1.64-2.45 27.9 27.9 0 0 0 1.54-3.28c.28-.64.55-1.29.85-1.92 2.53-5.38 6.87-9.57 11.07-13.63a33.14 33.14 0 0 1 4.74-4 24.62 24.62 0 0 1 2.43-1.36c-.13.2-.26.4-.38.6l-.75 1.18c-1.16 1.82-2.36 3.7-3.38 5.63A6.23 6.23 0 0 1 54 51.56c-.25.23-.5.47-.74.72a.75.75 0 0 1-.57.26.92.92 0 0 1-.38-.09 1.42 1.42 0 0 0-.6-.16zm-34.33 58.05v.09l-.06.09zm1.35-4.26l2.05-2.67c-.27.56-.54 1.08-.83 1.57a13.6 13.6 0 0 1-1.56 2.13zM66.3 31.35l5.25-1a16.82 16.82 0 0 1-6.47 2.35zM172.82 9.61a1.49 1.49 0 0 1-.31-.85 3.06 3.06 0 0 0-.45-1.85 4 4 0 0 1-.35-.84c-.72-3-2.88-3.76-5.15-4.17a8.75 8.75 0 0 0-1.56-.18 2.75 2.75 0 0 0-2.34 1.13 1.75 1.75 0 0 0-1.47 1.26c-.13.15-.28.31-.43.46a2.63 2.63 0 0 0-1 1.51 1.66 1.66 0 0 1-.68 1.27 3.18 3.18 0 0 0-.52.57 1.38 1.38 0 0 0-.21.66 16.32 16.32 0 0 1-1.71 5l-.3.66c-.4.87-.68 1.49-1.51 1.69a1.49 1.49 0 0 0-1.25 1.31c0 .2-.06.41-.09.61-.17 1.24-.31 2.3-1.58 2.74-.44.15-.64.89-.67 1.21a12.28 12.28 0 0 1-.71 2.82 16.1 16.1 0 0 0-.65 2.24c0 .2-.06.41-.08.62-.11 1-.23 1.67-1.32 1.67a.55.55 0 0 0-.46.38 4.13 4.13 0 0 1-.67 1.21 3.65 3.65 0 0 0-.72 1.43 10.59 10.59 0 0 1-.53 1.85 9.68 9.68 0 0 0-.58 2.13c0 .17 0 .34-.08.5l-.26-.09L133 56.64c-4.22 7-8.6 14.15-12.67 21.38-1.35 2.4-2.44 4.72-3.5 7a82 82 0 0 1-4.36 8.39q-3.66 6-7.37 11.92l-.44.7.77-.28c4-1.43 5.91-5.75 7.78-9.92.32-.72.63-1.42 1-2.1A78.82 78.82 0 0 1 122 81.34c1.21-1.67 2.46-3.39 3.64-5.14-.38 1.71-.78 3.31-2.18 4.39a1 1 0 0 0-.39.71c.08 1.13-.55 1.79-1.35 2.62a3.43 3.43 0 0 0-.73 2.29c0 .51-.35 1-.62 1-1.75.2-1.84 1.61-1.9 2.63a7.23 7.23 0 0 1-.28 1.4l-.14.57c-.16.67-.27 1-.65 1a1.1 1.1 0 0 1-.33-.06h-.19a1.12 1.12 0 0 0-.93.84c0 .14-.09.29-.13.43a2 2 0 0 1-.94 1.44c-.81.41-.69 1.16-.6 1.77a1.94 1.94 0 0 1 0 .93 1.24 1.24 0 0 1-.1.2 9.23 9.23 0 0 0-1.13 2.7l-.23.74c-.43 1.3-.87 2.66-2.3 3.22a3.93 3.93 0 0 0-1.33 1 2.64 2.64 0 0 1-1.78 1c-.26 0-.7.16-.72 1.2a8.63 8.63 0 0 1-.61 2.92c-.16.43-.41.74-.62.74h-.24a1.37 1.37 0 0 0-1.08.38 1.73 1.73 0 0 0-.3 1.37 1.45 1.45 0 0 1-.26.86 18.48 18.48 0 0 0-2.1 4.31l-.09.24c-.33.83-.72 1.21-1.28 1.21h-.43a.8.8 0 0 0-.77.72 2.46 2.46 0 0 1-2.31 2.43 1.44 1.44 0 0 0-1.22 1.34c0 .26-.1.52-.16.78l-.12.59a.8.8 0 0 1-.77.72 3 3 0 0 0-.77-.11 1.66 1.66 0 0 0-.32 0 69.19 69.19 0 0 1 7.25-9.43l-.35-.43-2.44 1.46 2.49-3.53-.44-.36-2.05 2.23c-.11-.92.63-1.93 1.36-2.82 1-1.17 1.49-2.78.75-3.75a40.72 40.72 0 0 0 9.34-14.69l-.53-.21a20.6 20.6 0 0 1-4.15 6c-.67.76-1.37 1.55-2 2.36a49 49 0 0 0-5.71 10.37l-.29.64c-2.42 5.47-4.93 11.12-9.1 15.12-.42.4-.85.79-1.28 1.17a14 14 0 0 0-3.77 4.44 1 1 0 0 0-.49-.12c-.79 0-1.64.89-2 1.73l-.28.58a24.05 24.05 0 0 0-1.41 3.29 1.18 1.18 0 0 0-.49.84 6.13 6.13 0 0 0-.11 1c0 .25 0 .49-.06.73s-.06.21-.37.22a.87.87 0 0 0-.84.41 1 1 0 0 1-.08.14 1.09 1.09 0 0 0-.2.42 2.6 2.6 0 0 1-1.48 1.88 6.6 6.6 0 0 0-2.81 3.49c-.33.77-.59 1.58-.85 2.36-.11.35-.23.7-.35 1.05v.22c.41.85 0 1.33-.46 1.94a3.64 3.64 0 0 0-.66 1.08.61.61 0 0 0-.06.39 7.47 7.47 0 0 1 .06 2.5 9 9 0 0 0 0 2.26 5.45 5.45 0 0 1-1.72 4.76 4.44 4.44 0 0 0-1.38 3.1 8.67 8.67 0 0 0 0 1.14 4.55 4.55 0 0 1-.23 2 1.14 1.14 0 0 0 0 .87.87.87 0 0 0 .54.45c.38.1.37.24.33.63a1.79 1.79 0 0 0 0 .61 4.76 4.76 0 0 1 0 1.92v.18c-.26 1.74-.35 4.26 1.79 6.07a2.8 2.8 0 0 1 .67 1l.14.29c.27.5.55 1 .83 1.49s.62 1.09.9 1.64c.15.3.39.68.8.68a1.33 1.33 0 0 0 .83-.46c.21-.21.31-.22.33-.22s.14.09.24.5.23.93.72.93a1.16 1.16 0 0 0 .77-.48c.1-.11.19-.23.28-.35a1.6 1.6 0 0 1 .36-.43 2.35 2.35 0 0 0 .89-2.49 4.66 4.66 0 0 0-.3-1.14 2.18 2.18 0 0 1 .73-2.48 1.38 1.38 0 0 1 .47-.26 2.64 2.64 0 0 0 .38-.18 1.22 1.22 0 0 0 .61-.77 1.11 1.11 0 0 0-.14-.81 3.07 3.07 0 0 1 0-2.8v-.1A18 18 0 0 1 81 171.8c.37-.52.74-1 1.09-1.57A15.25 15.25 0 0 1 83 169a8.88 8.88 0 0 0 1.84-3.11 2.76 2.76 0 0 1 1.18-1.55 5.18 5.18 0 0 0 2.36-3.82 1.62 1.62 0 0 1 .64-1.22 1.88 1.88 0 0 0 .64-1.49 1.78 1.78 0 0 1 .23-.86 7.78 7.78 0 0 1 1-1.07 9.63 9.63 0 0 0 .85-.84 1.48 1.48 0 0 0 .28-.7 2 2 0 0 1 .12-.41l.12-.24c.27-.55.5-1 1.09-1.15a1.48 1.48 0 0 0 .93-.91 4.86 4.86 0 0 1 .48-1 3.56 3.56 0 0 0 .67-2.25 1 1 0 0 1 .82-1.1 5.28 5.28 0 0 0 3.08-2.74l.13-.23a16 16 0 0 0 1.16-2.26c.64-1.64 1.47-2.45 2.72-2.62l.27-.12a2.13 2.13 0 0 0 1.61-2 1.83 1.83 0 0 1 1-1.7 1.36 1.36 0 0 0 .84-1.71c-.24-.81.11-1 .75-1.4a8.05 8.05 0 0 1 3.49-1.28c.65-.06 1.3-.19 1.93-.31.39-.08.78-.16 1.17-.22a1.46 1.46 0 0 0 1-.7c.25-.35.48-.71.71-1.07.84-1.3 1.63-2.53 3.15-2.92a1.35 1.35 0 0 0 .86-1 1.44 1.44 0 0 1 1.48-1.24h.68c.48 0 1.08-.17 1.2-.65a2.88 2.88 0 0 1 .55-1 2.33 2.33 0 0 0 .63-2.13.53.53 0 0 1 0-.4.7.7 0 0 1 .42-.25 9.21 9.21 0 0 1 1.49-.2 1.56 1.56 0 0 0 1.62-1.28.8.8 0 0 1 .71-.63c.35-.08.69-.18 1-.28a11.57 11.57 0 0 1 1.46-.37 1.73 1.73 0 0 0 1.71-1.54 1.33 1.33 0 0 1 1.09-1.29 1 1 0 0 0 .72-1.16l-.06-.38c-.09-.51-.18-1 .08-1.26a7.66 7.66 0 0 0 .92-1 3.77 3.77 0 0 1 1.68-1.36.34.34 0 0 1 .16.06.63.63 0 0 1 0 .27l-.1.17a1.08 1.08 0 0 0-.16.28c-.25.62-.07.76 0 .81a.66.66 0 0 0 .42.15.84.84 0 0 0 .66-.39 3.25 3.25 0 0 0 .53-1c.05-.19.1-.38.14-.58a5.19 5.19 0 0 1 .51-1.45 7.17 7.17 0 0 1 .95.36 1.64 1.64 0 0 1 1 1 1.07 1.07 0 0 1-.33.92 4.44 4.44 0 0 0-.92 2.28l-.08.37c-.06.31-.1.63-.13.94a9.28 9.28 0 0 1-.22 1.25 12.44 12.44 0 0 0-.34 1.61c-.22 1.36-.43 2.64-1.69 3.42a1.16 1.16 0 0 0-.38.78 1.51 1.51 0 0 1-.1.38 1.7 1.7 0 0 1-.33.58c-2 2-2.17 2.27-2.32 4.6v1.41a7 7 0 0 1-.56 2.59 27.5 27.5 0 0 0-1.43 3.57c-.3 1-.69 1.93-1.06 2.85s-.7 1.73-1 2.62a11.48 11.48 0 0 1-2.12 3.7 6.53 6.53 0 0 0-1.5 2.44 2.44 2.44 0 0 1-.48 1 6.23 6.23 0 0 0-1.8 3.26 13.4 13.4 0 0 1-.53 1.51c-.13.28-.23.57-.34.87a4 4 0 0 1-1.1 1.89 2.3 2.3 0 0 0-.66 1.15c0 .14-.09.28-.15.42-.2.46-.43.9-.66 1.35l-.21.41h-.09c-.88 0-1 .82-1.11 1.31a3.21 3.21 0 0 1-.08.36 47 47 0 0 0-1.9 12 21.39 21.39 0 0 0 .14 2.86 1.91 1.91 0 0 0 1.65 1.46 1.38 1.38 0 0 0 1.1-.74l.08-.11a6.06 6.06 0 0 0 1.06-3 7.12 7.12 0 0 1 1.62-4.13 6.41 6.41 0 0 0 1.96-3.44 1.51 1.51 0 0 1 1.36-1.37c1.35-.14 1.58-1.11 1.63-1.94v-.39a1.91 1.91 0 0 1 .6-1.69 4.12 4.12 0 0 0 1.78-3.24 1.46 1.46 0 0 1 .41-.64l.08-.1a12.75 12.75 0 0 0 2.25-4.55 4.47 4.47 0 0 1 2.45-3.09 8.2 8.2 0 0 0 1.77-1.19 3.09 3.09 0 0 1 1.79-.87 1.67 1.67 0 0 1 .73.18 1.25 1.25 0 0 0 .5.11 1.21 1.21 0 0 0 .95-.46 1 1 0 0 0 .18-.9 2.49 2.49 0 0 1 .84-2.46l.2-.24a6.07 6.07 0 0 0 .89-1.71 4.85 4.85 0 0 1 .88-1.62 5.74 5.74 0 0 0 1.29-2.84c.06-.27.13-.54.21-.8v-.2c.12-.44.25-.9.56-1a3.41 3.41 0 0 0 1.87-1.68c.16-.23.32-.47.52-.72.4-.48.74-.89 1.26-.89a.65.65 0 0 1 .19 0h.24c.54 0 .84-.35.91-1v-.22a2.23 2.23 0 0 0-.12-1.31c-.22-.44 0-.71.37-1.18a2.5 2.5 0 0 1 1.39-.91 1.81 1.81 0 0 0 1.39-1.52 6.79 6.79 0 0 0 .22-3.79c-.11-.36-.17-.58 0-.74 1.27-1.49 1-3.21.77-4.87v-.14a18.54 18.54 0 0 1 .18-5.21v-.17a1.7 1.7 0 0 0-.36-1.63c-.12-.11-.1-.26-.05-.58v-.23a7.82 7.82 0 0 0 0-2.05c-.21-1.14-.45-2.29-.69-3.43-.41-1.92-.83-3.91-1.06-5.9a5.21 5.21 0 0 0-.65-1.76l-.2-.39a1.13 1.13 0 0 0-.8-.61h-.12a2.13 2.13 0 0 1-.63.09 5.46 5.46 0 0 1-1.34-.23 6.1 6.1 0 0 0-1.49-.24 2.66 2.66 0 0 0-1.19.27 1 1 0 0 1-.42.09 1.47 1.47 0 0 1-1.13-.62 5.66 5.66 0 0 0-2.44-1.69 12.09 12.09 0 0 1-1.08-.55l-.13-.08-.14.06a1.25 1.25 0 0 0-.73 1 1.21 1.21 0 0 1-.05.18c-.1.31-.21.62-.31.92v.1a3.29 3.29 0 0 0-1.4-.46 4 4 0 0 0-1.19.28 1.77 1.77 0 0 0-.5.31.69.69 0 0 1-.43.2 2.08 2.08 0 0 0-.74-.15 1.75 1.75 0 0 0-1.49.94h-.15c-.95 0-1.46.63-1.52 1.87 0 0-.07.15 0 .15-1.05 0-1.38.84-1.66 1.48a5.69 5.69 0 0 1-.26.56l-.06.1c-.11.2-.35.63-.53.63a1.64 1.64 0 0 0-.56-.11 1.7 1.7 0 0 0-1.34.89 2.15 2.15 0 0 0-.17-.74.84.84 0 0 1 .26-1.14l.25-.24a2.36 2.36 0 0 1 .91-.64 2.37 2.37 0 0 0 1.61-2.29 3.53 3.53 0 0 1 1.26-2.71 2 2 0 0 0 .53-.72 1.91 1.91 0 0 1 .58-.72.76.76 0 0 0 .37-.49 1.22 1.22 0 0 0-.19-.88.78.78 0 0 1 0-1 9.84 9.84 0 0 0 .87-1.78 4.51 4.51 0 0 1 3.55-3.22 3.55 3.55 0 0 0 .85-.29c.14-.06.28-.13.42-.18a1.37 1.37 0 0 0 1-1.26 5.88 5.88 0 0 1 1.45-3.33 3.56 3.56 0 0 0 .82-3.52.66.66 0 0 1 .08-.13l.41.32.17-.29a3.7 3.7 0 0 1 .44-.58 2.27 2.27 0 0 0 .72-1.6c-.07-1.37.6-2.07 1.78-2.81a5.39 5.39 0 0 0 2.48-3.43 1.73 1.73 0 0 1 1.51-1.54 1.66 1.66 0 0 0 1.38-1.56 5.44 5.44 0 0 1 .17-.78A3.81 3.81 0 0 0 153 58a1.86 1.86 0 0 1 .7-2 4.1 4.1 0 0 0 1.14-3.77 5.15 5.15 0 0 1 .38-3v-.14l.4.06.08-.21a4.6 4.6 0 0 0 .3-.94c.12-.66.22-1.22.85-1.48l.14-.06v-.16a2.92 2.92 0 0 1 .31-.85 2.4 2.4 0 0 0 .26-1.92 1.13 1.13 0 0 0-.29-.41c-.05-.07-.16-.19-.16-.23s0 0 .12-.13.17.06.49.4a.8.8 0 0 0 .61.31 1.23 1.23 0 0 0 .56-.17.87.87 0 0 1 .25-.11h.17c2.77-.54 3-.59 4.34-3.23.21-.41.34-.41.45-.41h.49a.72.72 0 0 0 .56-.27.7.7 0 0 0 .12-.61 3.34 3.34 0 0 0-.34-.77l-.15-.27c-.09-.18-.38-.75-.32-.87s.12-.11.62-.2a3.35 3.35 0 0 0 1.57-.6l.09-.06c.28-.22.75-.58.54-1.1a1.37 1.37 0 0 1-.09-1.1c.17-.3.67-.41 1.19-.48v-.1l.12.1.61-.62a4 4 0 0 0 .2-.52 2 2 0 0 1 .43-.84 2.8 2.8 0 0 0 .93-1.86l.05-.24a10.14 10.14 0 0 1 1.36-3.35c1.68-2.61 1.7-5.1.06-7.38a.88.88 0 0 1 .11-1.35 5.28 5.28 0 0 0 1.3-3l.12-.59a4.77 4.77 0 0 0-.85-3.86zM92 128.67l.24-.4v.22c.03.07.03.12-.24.18zm105.77 270.74h.34l1.88-6.28-.5-.25a28.94 28.94 0 0 0-4.33 9.19l.5.24z" transform="translate(-2.18 -1.72)"/><path class="cls-1" d="M249.54 352.79l-.07-.91c-.07-.94-.2-1.9-.33-2.82l-.12-.84a1.62 1.62 0 0 0-.33-1c-.2-.21-.41-.42-.61-.64-1.11-1.17-2.25-2.39-4.09-2.68a5.86 5.86 0 0 0-.63-.06c-.77 0-1.43-.07-1.68-1-.06-.21-.26-.31-.72-.36h-.3a4.58 4.58 0 0 0-1.58.35v-.5l-2.42 1.06h-.13a7.76 7.76 0 0 0-2.78.6 11.38 11.38 0 0 0-4 2.41 10.41 10.41 0 0 1-1.35 1.05 5.78 5.78 0 0 0-1.81 1.65 21.44 21.44 0 0 1-1.83 2.42h-1.71v.87a20.53 20.53 0 0 0-1.67 2.69c-.26.67-.65 1.76-.66 1.78-.22.8-.48 1.6-.55 1.82l-1 1.16.81-.07-.26.15a4.5 4.5 0 0 1-.54.23l-.12-.21h-.18c-.19 0-.22 0-.82.87l-1.16 1.61-.67.85c-.4.72-1 1.79-1.11 1.92-.87 1.1-1.86 2.25-2.05 2.48l-1.74 2 .43.37 1.09-1.27 2.1-2.46 1.56-1.06-1.32 1.49v.05a31.84 31.84 0 0 1-3.75 4.67h-.18a.39.39 0 0 0-.28-.1 1.28 1.28 0 0 0-.46.13l.13.53-.06.1h-.15c-.18 0-.18 0-1.1 1.64-.26.46-.42.75-.53.93s-.51.88-1.29 2.31l-2.73 5-.22.38h.48s0 .1-.23.39l-.55.69c-.39 0-.91.37-1.32 1.84a10.48 10.48 0 0 1-1.46 3.14v.13c-.29 2.08-.23 2.14-.13 2.25l.09.1h.12c.27 0 .32-.21.47-.9.41-1.81 1.13-1.94 1.13-1.94h.2v-.2a4.21 4.21 0 0 1 .61-1.18c.16 0 .18 0 .54-.79s.44-.73.64-.87a4 4 0 0 0 1-1.11 13.1 13.1 0 0 0 1.16-1.93c.08-.16.16-.33.27-.52a.54.54 0 0 0 .1-.41l.23-.19c.33-.28.53-.46.67-.59a1.14 1.14 0 0 0 .18.51l.51.86.23 1.23-.69.67c-.65.61-.81.79-.89.87a2.55 2.55 0 0 1-.37.33c-.1.08-.16.11-.16.13h-.16c-.23 0-.28.15-.42.58a9.52 9.52 0 0 1-1 1.79c-.15 0-.34 0-1.55 1.2l-.82.79c-1.42 1.35-2.07 2-2.28 2.85a26.39 26.39 0 0 1-1 2.78c-.46 1-1.51 3.4-1.34 4a17.24 17.24 0 0 1-.5 2.71c-.24 1-.24 1-.13 1.16l.08.11h.14c.22 0 .27-.16.37-.45s.24-.51.36-.52h.21l.07-.12c.1-.16.07-.25-.16-.86s.07-.91.56-1.42a2.52 2.52 0 0 0 .75-1.09 1.9 1.9 0 0 0 0-1c-.06-.26-.08-.34.4-.65a1.92 1.92 0 0 0 .8-1.12c.12-.34.14-.35.3-.35h.24l.77.15c-.52.85-.92 1.53-1.28 2.19a12 12 0 0 0-.56 1.21 7.09 7.09 0 0 1-.8 1.58 42.52 42.52 0 0 0-3.3 5.41c-.77 1.41-1.56 2.86-2.47 4.22-.23.34-.45.69-.68 1v-2.1l-.52.79s-.58.89-1.31 2.06-1.3 2.07-1.77 2.85a5.58 5.58 0 0 1 .31-1l.38-.78 2.84-4.81.77-.54 1-1.74v-1.83h-.56s0 .08-.18.24a6.68 6.68 0 0 1-1.33.86l-.16.07v1.31l-4.14 6c-.11.21-1 2.05-1.19 2.47a10.74 10.74 0 0 1-1.27 1.7l-.55 1c0 .06-1.52 5.76-2 7.89a1.12 1.12 0 0 0-.1.18c-.13.31-.28.6-.43.88l-.31.59h-.06a1.9 1.9 0 0 0-.94 1l-.15.36a5.86 5.86 0 0 0-.9 1.08 32.78 32.78 0 0 0-2.87 6.06 5.09 5.09 0 0 0-.19.77c-.14.75-.22 1.05-.9 1.05h-.3c-.38 0-.7.6-.86 1l-.23.53a10.46 10.46 0 0 1-2.56 4.08 2.28 2.28 0 0 0-.52.77l-.11.22c-.35.66-.68 1.32-1 2a24.91 24.91 0 0 1-3.34 5.53l-.05.06v.08c-.24 1.41-1.24 1.79-2.63 2.17-.33.1-.67.16-1 .23a5.69 5.69 0 0 0-2.46.87.66.66 0 0 1-.22-.06 1.35 1.35 0 0 0-.6-.16 1.58 1.58 0 0 0-1.11.58c-.37.38-.75.74-1.14 1.11l-.95.93a2.11 2.11 0 0 1-1.33.71 1 1 0 0 1-.59-.19 1.71 1.71 0 0 0-.89-.35 1.13 1.13 0 0 0-.79.38l-2.83 2.79a2.68 2.68 0 0 0-.28.3c-.23.27-.45.52-.75.52h-.17a2.76 2.76 0 0 0-2 1l-.3.28c-.12.1-.25.22-.37.34a2.67 2.67 0 0 1-1 .73 6.87 6.87 0 0 0-2.91 2l-.56.54-.19.19c-.17.17-.32.33-.48.34a1 1 0 0 1-.43-.48 1.44 1.44 0 0 0-1.29-.87h-.14l-.29.33a9.9 9.9 0 0 0-.7.86 12.47 12.47 0 0 1-2.69 2.53 14.51 14.51 0 0 0-2.33 2.05 1.1 1.1 0 0 1-.72.37 2.52 2.52 0 0 0-1.66.77l-.27.23c-.29.22-.57.46-.86.69a11.29 11.29 0 0 1-2.91 2 12.54 12.54 0 0 0-3.61 2.39l-.32.27c-.37.31-.78.59-1.17.87a6.78 6.78 0 0 0-2.59 2.59 1.24 1.24 0 0 1-.48.54h-.15a2.7 2.7 0 0 0-2.08 1.25c-.16.18-.31.37-.48.53a8.15 8.15 0 0 1-3.33 2.25 13.1 13.1 0 0 0-4.39 2.64c-.4.32-.79.64-1.19.94a2.6 2.6 0 0 0-1 1.83.57.57 0 0 0 .22.46 2.3 2.3 0 0 0 1.3.36 7.14 7.14 0 0 0 .93-.09 1.19 1.19 0 0 0 .68-.28 6.66 6.66 0 0 1 1.8-1.09 5.46 5.46 0 0 0 2.5-1.91 1.23 1.23 0 0 1 .46-.15l.31-.08c.36-.11.73-.18 1.1-.26a6.46 6.46 0 0 0 2.56-1 .76.76 0 0 1 .43-.13 2.15 2.15 0 0 0 .75.13 4.26 4.26 0 0 0 1.43-.32 4 4 0 0 1 1.24-.28h.42a1.35 1.35 0 0 0 1-.49 12.46 12.46 0 0 1 3.4-2.45 19.14 19.14 0 0 0 2.37-1.49 14.42 14.42 0 0 1 4.18-2 18.15 18.15 0 0 0 3.61-1.54.52.52 0 0 1 .15 0h.47a2.19 2.19 0 0 0 1.79-1 1.31 1.31 0 0 1 1-.61h.26a3.58 3.58 0 0 0 .7.08 2.64 2.64 0 0 0 2.12-1.13 1.86 1.86 0 0 1 .75-.5l1.26-.57a18.57 18.57 0 0 1 4.24-1.54 9.64 9.64 0 0 0 4.6-2.55 3.83 3.83 0 0 0 .28-.29 1.79 1.79 0 0 1 .27-.28.47.47 0 0 1 .28-.09.81.81 0 0 1 .8.68c0 .7-.11 1-.18 1a5.39 5.39 0 0 0-1.55 2.54c-.1.28-.2.56-.32.82a18.73 18.73 0 0 1-1.56 2.71 16 16 0 0 1-1.16 1.45 7.57 7.57 0 0 0-2.05 3.5 9 9 0 0 1-1.53 3.19 12.65 12.65 0 0 0-1.3 2.34 4.35 4.35 0 0 0-1.32 2 4.34 4.34 0 0 1-.94 1.56 5.48 5.48 0 0 0-1.39 2.78 12.34 12.34 0 0 1-.38 1.22v.09c-.12.3-.21.51-.35.53-1 .1-1.26.94-1.42 1.55v.15a79.6 79.6 0 0 1-4.47 7.17c-2.71 4.13-4.37 6.69-4.55 7.33-.06.26-.12.52-.17.77-.21 1-.4 1.93-1.39 2.43a1.82 1.82 0 0 0-.7 1.08 13.63 13.63 0 0 1-1.89 3.87l-.06.1c-.11.18-.21.36-.31.54-.39.71-.7 1.27-1.54 1.46a1.83 1.83 0 0 0-1.19 1.39 7.26 7.26 0 0 1-1.51 2.69c-.16.21-.32.41-.47.62a5.2 5.2 0 0 1-.85.84 3.91 3.91 0 0 0-1.15 1.33 4.87 4.87 0 0 1-1.89 1.93c-.33.23-.65.46-1 .71a8 8 0 0 1-1.22.89 2 2 0 0 0-1 1.48l-.2 1a21.06 21.06 0 0 0-.6 6.26 5.39 5.39 0 0 1 0 1.06v.24c0 .41-.08.82-.13 1.22-.08.74-.16 1.51-.2 2.27a10.75 10.75 0 0 0 .83 4.81 2 2 0 0 0 1.93 1.16h.36c.55 0 1-.38 1.28-1.14l.11-.26a8.34 8.34 0 0 1 1.47-2.68l.18-.18a5.09 5.09 0 0 0 1.73-3.14 1.05 1.05 0 0 1 .38-.68 3.32 3.32 0 0 0 1.41-2.74v-.25c.38-2.46.84-4.82 2.39-6.82a15.71 15.71 0 0 0 .93-1.37 11.15 11.15 0 0 1 1.36-1.87 15.23 15.23 0 0 0 3.72-7.37v-.13a1.49 1.49 0 0 1 .25-.67 8.53 8.53 0 0 0 1.42-1.46 4.34 4.34 0 0 1 2.76-2 1.72 1.72 0 0 0 1.27-1.7 5.5 5.5 0 0 1 1.81-3.27l.27-.28a3.33 3.33 0 0 0 1.11-1.85c.16-1.11 4.82-7.48 7.61-11.28 1.31-1.78 2.25-3.07 2.53-3.54a12.22 12.22 0 0 0 1.09-2.13 7.46 7.46 0 0 1 3.8-4.59 3.19 3.19 0 0 0 1.81-1.77 14.89 14.89 0 0 1 .57-1.53 9.56 9.56 0 0 0 .9-3.42 1.46 1.46 0 0 1 .61-1.29c1.46-.35 1.69-1.51 1.9-2.58s.68-1.85 1.4-2.1a2.77 2.77 0 0 0 1.71-2.17 9.32 9.32 0 0 0 .3-1.93 1 1 0 0 1 .64-1c2.82-1.06 3.55-3.57 3.87-5.63a2.9 2.9 0 0 0 0-.43 1.68 1.68 0 0 1 0-.44 5.42 5.42 0 0 0 1.13-1.54 4.27 4.27 0 0 1 1.23-1.57c1-.67 1.92-1.43 2.83-2.17l.52-.41a.94.94 0 0 1 .59-.25h.14a2.18 2.18 0 0 0 .43.05 2 2 0 0 0 1.67-1 4 4 0 0 1 2.19-1.37c.17-.06.33-.11.49-.18s.53-.22.8-.35a4.86 4.86 0 0 1 2-.62 2 2 0 0 1 .73.13 1 1 0 0 0 .29.05 1.25 1.25 0 0 0 .93-.51l.42-.44a4.26 4.26 0 0 0 .83-1c.36-.67.7-.95 1.15-.95a1.67 1.67 0 0 1 .61.13 2.38 2.38 0 0 0 .85.17 2.46 2.46 0 0 0 1.82-.91 5.47 5.47 0 0 1 1.65-1.12l.43-.23c.5-.26 1-.5 1.52-.74A14.23 14.23 0 0 0 200 451a5.65 5.65 0 0 1 2.91-1.28 3.91 3.91 0 0 0 1.73-.93 4.13 4.13 0 0 1 1.45-.85l.26-.09a1.17 1.17 0 0 1 .36-.08 2.8 2.8 0 0 0 .48.05 3 3 0 0 0 2.26-1.34c.59-.69 1.23-1.35 1.86-2a20.17 20.17 0 0 0 3.48-4.31 7.71 7.71 0 0 1 1.23-1.65 20.08 20.08 0 0 0 3.15-4.67c.42-.76.86-1.55 1.33-2.29v-.16a2.23 2.23 0 0 1 .74-1.51 4 4 0 0 0 .75-1.15l.1-.25c.2-.49.48-1.17-.46-1.65-.11-.05-.12-.12-.13-.37a1.81 1.81 0 0 0-.05-.38 3 3 0 0 0-1.92-1.95c-.13 0-.29-.12-.28-.23a1.2 1.2 0 0 0-.15-1 .54.54 0 0 0-.44-.2 1.44 1.44 0 0 0-.62.19 8.13 8.13 0 0 1-2.94.75l-.69.1h-.27a1.17 1.17 0 0 0-1 .49 2.37 2.37 0 0 1-2.29 1 3.52 3.52 0 0 0-2.43 1.22c-.68.62-1.32 1.3-1.94 2s-1.26 1.34-1.93 2l-.65.59a32.81 32.81 0 0 0-5.39 5.82 10.09 10.09 0 0 1-4.2 3.22 14.8 14.8 0 0 0-3.21 2 .34.34 0 0 1-.24.11 1.07 1.07 0 0 1-.44-.17 1.53 1.53 0 0 0-.71-.23.88.88 0 0 0-.51.16 1 1 0 0 1-.29.07 1.42 1.42 0 0 0-.4.08l-.18.06a5.94 5.94 0 0 0-2.66 1.55l-.07.09a.84.84 0 0 1-.22.21.36.36 0 0 1-.15 0H185a.34.34 0 0 1 0-.11v-.49a1.28 1.28 0 0 1 .1-.67 9.31 9.31 0 0 0 1.07-2.11 8.09 8.09 0 0 1 1-1.93 7 7 0 0 0 .49-.83c.37-.73.7-1.35 1.57-1.45a1.11 1.11 0 0 0 .76-.73 7.13 7.13 0 0 1 1.1-1.85 8.83 8.83 0 0 0 1-1.52 45.34 45.34 0 0 1 2.42-4.31 36.59 36.59 0 0 0 3-5.57 2.31 2.31 0 0 1 .52-.8 8 8 0 0 0 1.53-2.73l.19-.5a3.1 3.1 0 0 1 .52-1 9.3 9.3 0 0 0 1.62-2.73c.13-.28.25-.56.39-.83l.21-.45a5.4 5.4 0 0 1 1.24-1.94 7.39 7.39 0 0 0 1.78-2.41c.55-1 1.07-2 1.6-3.07l.63-1.23.24-.51a3 3 0 0 1 1.14-1.52 2.4 2.4 0 0 0 .77-.95l.12-.2c.24-.41.49-.81.73-1.21.68-1.11 1.38-2.25 2-3.44.22-.45.45-.9.68-1.35a31.79 31.79 0 0 0 2.38-5.53 31.9 31.9 0 0 1 2.22-5.69c.24-.47.46-.95.68-1.42a18 18 0 0 1 1.92-3.43 2.87 2.87 0 0 0 .65-1.34 8.11 8.11 0 0 1 .95-2.65 14.75 14.75 0 0 0 .68-1.51c.17-.49.37-1 .57-1.46a20.46 20.46 0 0 0 1.05-3.06 22.3 22.3 0 0 1 1.76-4.53c.33-.7.67-1.4 1-2.12.43-1 .58-1.14 1-1.14a10.16 10.16 0 0 1 1.33.19 5.79 5.79 0 0 0 .6.07 2.55 2.55 0 0 1 .87.15.89.89 0 0 0 .39.09 2.09 2.09 0 0 0 .52-.09 1.47 1.47 0 0 1 .38-.07.34.34 0 0 1 .27.11v.32c-.05.36-.09.74-.15 1.11a1 1 0 0 0 .79 1.34c.29.07.42.2.39.72a2.27 2.27 0 0 0 .75 1.92c.31.28.26.46 0 1v.14c-.58 1.48-1.18 3-.34 4.83a3.62 3.62 0 0 1-.14 3.14 2.37 2.37 0 0 0-.27 1.79 3 3 0 0 1-.51 2.44l-.16.1c-1.24 2.38-2.72 5.19-4.29 8l-.36.66a25.49 25.49 0 0 1-3.48 5.31c-.27.29-.53.58-.79.88A12.7 12.7 0 0 1 222 398a9.07 9.07 0 0 0-1.67 1.72 5 5 0 0 1-3 2.2h-.12l-.07.09A8.7 8.7 0 0 1 215 404a11.83 11.83 0 0 0-1.94 1.62 9.16 9.16 0 0 0-2.36 5.19 1.31 1.31 0 0 0 .15.64c0 .09.07.18.11.28l.08.25.25-.06a7.36 7.36 0 0 0 2.45-1.24 9.85 9.85 0 0 1 1.51-.9 1.75 1.75 0 0 0 .81-1 7.76 7.76 0 0 1 2.22-2.84 16.93 16.93 0 0 0 1.44-1.49c.68-.84 1.45-1.64 2.19-2.41a31.09 31.09 0 0 0 2.42-2.69 27.61 27.61 0 0 1 2.61-2.91l.22-.21a21.52 21.52 0 0 0 4.09-4.88l.14-.27a3.88 3.88 0 0 1 .67-1 27.21 27.21 0 0 0 6-8.17 1.39 1.39 0 0 1 .77-.7 3.62 3.62 0 0 0 2.29-2.07c.12-.21.25-.42.38-.62a10.37 10.37 0 0 0 .62-1.13c.16-.32.31-.65.51-1a24.65 24.65 0 0 0 3-6 26.57 26.57 0 0 1 2.37-5.84 1.28 1.28 0 0 0-.16-1.54.43.43 0 0 1-.1-.17 1 1 0 0 1 .18-.14 1 1 0 0 0 .36-.33 13.25 13.25 0 0 0 1.27-5.52 28.6 28.6 0 0 0-.01-4.06zm-40.25 26.27c.55-.8.83-1.28 1-1.63s.26-.44.41-.66a1.58 1.58 0 0 0 .17-.26l.22-.27a7.68 7.68 0 0 1 1.23-1.34 2.51 2.51 0 0 0 .18 1c.14.4.21.6-.11 1-.68.79-2 2-2 2l-.81.83h-.24a1 1 0 0 0-.48.11 2 2 0 0 1 .43-.78zM153 413.21a25.26 25.26 0 0 1-3.31 1.31 17.5 17.5 0 0 0-4.93 2.31 1.7 1.7 0 0 1-.47.22l-.16.05-1.06.38a10.52 10.52 0 0 0-4.87 2.76 3.24 3.24 0 0 1-1.47.73l-.24.08a4.3 4.3 0 0 0-1.89 1.18l-.13.14a3.18 3.18 0 0 0-.34.43 1.28 1.28 0 0 0-.49-.11 1.81 1.81 0 0 0-1.14.57c-.12.1-.25.21-.38.3a14 14 0 0 1-1.57.85 10.59 10.59 0 0 0-1.8 1 16.92 16.92 0 0 0-1.86 1.64c-.4.38-.79.76-1.2 1.11a3.74 3.74 0 0 1-1 .57l-.25.1a11.35 11.35 0 0 0-3.35 1.95 15.28 15.28 0 0 1-2.82 1.86l-.43.24a8.15 8.15 0 0 0-1.24.95 3.7 3.7 0 0 1-2.12 1.2c-.55 0-.94.52-1.31 1a3.48 3.48 0 0 1-.82.81 10.27 10.27 0 0 0-1.89 1.48 7.31 7.31 0 0 1-2.56 1.76 1.94 1.94 0 0 0-.92.92c-.26.46-.69 1-1.29 1a1.42 1.42 0 0 1-.67-.2 1.38 1.38 0 0 0-.7-.21 2 2 0 0 0-1.3.72l-.1.1a4.43 4.43 0 0 0-.51.62c-.27.38-.53.73-.9.78-1.31.14-2.19 1.15-3 2.13l-.09.1-.23.29c-.14.17-.4.5-.49.52h-.17a1.74 1.74 0 0 0-1.34.85 3.42 3.42 0 0 1-.36.4c-.47.45-.93 1-1.37 1.45a9.39 9.39 0 0 1-3.11 2.63 6.18 6.18 0 0 0-3.41 2.82c-.19.35-.31.35-.37.35h-.12a.91.91 0 0 0-.23 0 1.31 1.31 0 0 0-.91.54c-.26.26-.52.53-.77.8a15.81 15.81 0 0 1-4.62 3.81 1.84 1.84 0 0 0-.5.41c-.65.64-1.32 1.24-2 1.85a25.87 25.87 0 0 0-5.21 5.87 4.53 4.53 0 0 1-1.46 1.37l-.14.1a1.89 1.89 0 0 1-1.13.51h-.3a.51.51 0 0 0-.22 0 9.13 9.13 0 0 1 .24-2.87 41.87 41.87 0 0 1 1.73-5.8 121.71 121.71 0 0 1 11.8-24.45c.78-1.22 1.57-2.42 2.36-3.62 1.29-1.94 2.61-3.94 3.82-6a76.62 76.62 0 0 0 7.85-18.75l-.53-.18a180.15 180.15 0 0 1-11.07 22.51 19.48 19.48 0 0 1 2.9-5.78l.33-.51a1.93 1.93 0 0 0 .16-1.94l.6-.73a4.24 4.24 0 0 0 1.15-2.9 2.37 2.37 0 0 1 .3-1c.38-.72.76-1.45 1.13-2.18 1-2 2.06-4 3.23-5.83a27.1 27.1 0 0 0 1.51-2.87 24.94 24.94 0 0 1 1.47-2.81 3.06 3.06 0 0 0 .37-.92 29 29 0 0 1 3-6.75l.5-.86c.58-1 1.17-2 1.77-3-1.21 3-2.3 5.8-3.32 8.61l.52.24c8.79-15.33 17.89-31.4 26.68-46.94l2.47-4.36a6.25 6.25 0 0 0 1.67-2.25 22.79 22.79 0 0 1 1.44-2.53 6 6 0 0 1 1.44-1.56 2.24 2.24 0 0 0 .8-1.5 2.48 2.48 0 0 1 .35-1c1.72-2.2 2.64-5 3.54-7.73l.05-.16a3.5 3.5 0 0 0-.15-2.57c0-.1-.09-.19-.14-.29a6.19 6.19 0 0 0-2.34-2.37 9.09 9.09 0 0 1-1.42-1.12.48.48 0 0 0-.35-.14.84.84 0 0 0-.46.15 8 8 0 0 1-1.42.74 5.62 5.62 0 0 0-2.42 1.65 2.53 2.53 0 0 1-1.12.74l-.32.14c-.33.15-.66.32-1 .49a12.78 12.78 0 0 1-1.55.73 19.58 19.58 0 0 0-3.24 1.69 20.35 20.35 0 0 1-2.87 1.53 2.52 2.52 0 0 0-1.77 1.9 1.7 1.7 0 0 1-1 1c-1.94 1-3.15 2.91-3.7 5.72l-.06.25c-.06.33-.13.66-.17 1a2.06 2.06 0 0 1-.5 1.19 4.31 4.31 0 0 0-1.42 3.93.26.26 0 0 1-.07.1 1 1 0 0 0-.2.39v.12c-2.53.61-5.07 6.37-6.76 10.22-.44 1-.82 1.86-1.09 2.36-2.24 4.2-4.45 8.63-6.6 12.92-4.34 8.66-8.83 17.62-13.88 25.52l.48.31 5.64-8.83a75.54 75.54 0 0 1-9.29 17 14.42 14.42 0 0 1 .55-5.15l-.52-.22A89.54 89.54 0 0 0 72.82 426l.54.17a38 38 0 0 1 4.92-9.73c.89 2.88-.43 5.9-1.81 9.08-1.25 2.86-2.54 5.82-2.22 8.82-.71 1.15-1.42 2.31-2.14 3.45q-.45.72-.93 1.41a19.86 19.86 0 0 0-1.84 3.06c-.44 1-1 1.93-1.48 2.84a28.45 28.45 0 0 0-1.86 3.79l-.27.64a6.56 6.56 0 0 0-.56 1.67 10.89 10.89 0 0 1-2.35 5.24l-.07.08a6.26 6.26 0 0 0-1.39 2.61 5.33 5.33 0 0 1-1.17 2.51 3.3 3.3 0 0 0-.61 3.14 1.08 1.08 0 0 1 0 .94 22.1 22.1 0 0 0-1 2 15.16 15.16 0 0 1-1.57 3 13.24 13.24 0 0 0-2.28 4.19 5 5 0 0 1-1.19 1.88 6.18 6.18 0 0 0-1.3 2 4.19 4.19 0 0 1-.79 1.24 4.69 4.69 0 0 0-.89 1.45 14.15 14.15 0 0 1-.63 1.61 66.6 66.6 0 0 1 5.8-12.85l-.48-.3-7.53 10.91c2.51-8.62 6.74-16.39 10.83-23.92s8.29-15.22 10.84-23.81l-.51-.23A294.27 294.27 0 0 0 51.36 466c-3.41 7.54-7.07 14.31-10.94 21.48-1.18 2.18-2.37 4.38-3.55 6.6A20.26 20.26 0 0 0 36 496a.76.76 0 0 0-.13.17.83.83 0 0 0-.13.58c0 .15-.1.31-.14.46a1.22 1.22 0 0 0-.6-.21 1 1 0 0 0-.6.19 8.09 8.09 0 0 1-3.22 1.05 3.06 3.06 0 0 0-2.45 1.95 2.35 2.35 0 0 1-.95 1.23 4.53 4.53 0 0 0-.57.51 2.63 2.63 0 0 0-.52 1.55 1.92 1.92 0 0 1-.43 1.26 1.52 1.52 0 0 0-.33.63 1.31 1.31 0 0 1-.16.37 3.16 3.16 0 0 0-1 1.59 5.34 5.34 0 0 1-.34.8c-.69 1.2-1.35 2.61-.51 4.25a1.24 1.24 0 0 1-.21 1.59 2.6 2.6 0 0 0-.66 2.2 2.48 2.48 0 0 1-.56 1.78 4.93 4.93 0 0 0-1.06 3.29 28.72 28.72 0 0 1-.36 3.39c-.19 1.25-.42 2.8 1.34 3.1.22 0 .38.44.52.79.06.16.12.31.18.44l.09.19a4.65 4.65 0 0 0 1.8 2.34 3.38 3.38 0 0 0 .44.18c.45.17.8.3 1 .87a1.22 1.22 0 0 0 1 .83c.36.11.6.18.7.62a.62.62 0 0 0 .61.56 1.24 1.24 0 0 0 .64-.23 1.06 1.06 0 0 0 .57-1.26c-.13-.51-.07-.67-.06-.68a.66.66 0 0 1 .29.11 1.44 1.44 0 0 0 .74.16h.23a.3.3 0 0 1 0 .19c-.16.53-.16.89 0 1.11a.53.53 0 0 0 .43.21A1 1 0 0 0 32 534a7.72 7.72 0 0 1 .85-.29 3.35 3.35 0 0 0 2.15-1.35 3.5 3.5 0 0 1 1.41-1.31c.18-.11.37-.24.55-.37v.06l.39-.39v-.14a1.84 1.84 0 0 1 .74-1.58l.53-.5c.79-.78 1.62-1.59 2.47-2.29a8.14 8.14 0 0 0 2.54-3.61c.43-1.28.74-2.08 1.67-2.47a1.38 1.38 0 0 0 .77-.8 1.62 1.62 0 0 0-.18-1.35 1 1 0 0 1 .15-1.11 3.47 3.47 0 0 1 2.34-1.62h.17l.06-.11.45-.73-.23.09c0-.08 0-.15.07-.24.07-.36.15-.71.35-.8a.42.42 0 0 1 .16 0c.11 0 .2.29.26.53a1.9 1.9 0 0 0 .31.71 1.38 1.38 0 0 0 1 .61 1 1 0 0 0 .88-.58 8.15 8.15 0 0 1 2.17-2.14l.29-.21a1.57 1.57 0 0 0 .61-2 2 2 0 0 1-.06-.27 1.9 1.9 0 0 1 .27.11 1.61 1.61 0 0 0 .67.17.78.78 0 0 0 .57-.23 1.75 1.75 0 0 0 .29-1.33v-.3c0-.28-.06-.52 0-.66.48-.59 1-1.14 1.53-1.67l.19-.18s.07 0 .15.15a1.09 1.09 0 0 0 .87.52 1.79 1.79 0 0 0 .84-.28 1.45 1.45 0 0 1 .61-.23h.12a.52.52 0 0 0 .21 0c.57 0 .76-.69.91-1.25 0-.11.06-.22.09-.31a3.31 3.31 0 0 1 .83-1.21 3.52 3.52 0 0 0 1-1.46c1.06-.5 1.19-.68 1.14-1.91a1.85 1.85 0 0 1 .62-1.63l.16-.13a6.11 6.11 0 0 1 1.73-1.13 4.28 4.28 0 0 0 2.28-2 12.64 12.64 0 0 1 3.05-3.27l.37-.29c2.94-2.34 3.06-2.43 5.32-5.94A1.24 1.24 0 0 1 79 485a3 3 0 0 0 .27-.23c1.31-1.32 2.87-2.74 4.82-2.91a3.78 3.78 0 0 0 1.3-.4 36.85 36.85 0 0 0 4.91-5.12l.25-.45a4.21 4.21 0 0 0 .66-1.54 4.48 4.48 0 0 1 2.16-3.32 7.51 7.51 0 0 0 1.58-1.65 5.81 5.81 0 0 1 1.64-1.64h.08v-.07a33.27 33.27 0 0 1 3.34-4.88c.6-.77 1.23-1.57 1.81-2.39l.45-.65a15.8 15.8 0 0 1 3.86-4.32l.24-.18a.67.67 0 0 1 .34-.18 1.72 1.72 0 0 0 .79.22c.73 0 1.26-.59 1.74-1.2.14-.17.56-.7.84-.74a3.43 3.43 0 0 0 2.1-1.53l.33-.39c1.3-1.5 2.59-3 3.89-4.53l1.6-1.9c.06-.07.11-.15.17-.23a1.33 1.33 0 0 1 .29-.32 8.3 8.3 0 0 0 3-2.77c.15-.19.3-.39.46-.58s.18-.24.27-.37c.31-.44.64-.89 1.06-.89h.25a2.71 2.71 0 0 0 1.94-1.16l.47-.53a2.61 2.61 0 0 1 1.25-1 6 6 0 0 0 3.11-2.28 18.25 18.25 0 0 1 2.74-2.64l.67-.5a16.35 16.35 0 0 0 3.86-3.53 1.17 1.17 0 0 1 .52-.35 11.18 11.18 0 0 0 3-2.06c.44-.37.87-.74 1.33-1.07.86-.64 1.71-1.34 2.52-2a27 27 0 0 1 4.48-3.27c1.29-.68 3.18-3.7 4-5.93l.26-.68zm-63.48 10c-.06-.17 0-.24 0-.31zM102.35 377c0 .17 0 .34-.07.5a2 2 0 0 1-.59 1.41 6.16 6.16 0 0 0-1 1c.53-.91 1.1-1.91 1.66-2.91zm-2.66 4.63a8.56 8.56 0 0 0-.5 2.73c0 .62-.13 1.4-.58 1.65a3.37 3.37 0 0 0-1.44 2.41 4.14 4.14 0 0 1-.72 1.72 5.49 5.49 0 0 0-1.49 4c0 .56-.18.92-.45 1.06-2.17 1.18-3.55 3.4-4.77 5.56-.18.32-.37.62-.56.92l-.13.21q5.06-10.34 10.64-20.25zm-11.81 22.74a4.05 4.05 0 0 0-.12.5 1.19 1.19 0 0 1-.28.6l-.2.14zm-1.79 3.78c0 .24 0 .48-.07.72a2.93 2.93 0 0 1-.94 2.18 2.88 2.88 0 0 0-.84 1.37 11.67 11.67 0 0 1-1.58 3.34q1.68-3.83 3.43-7.61zm-25.7 96.13a.49.49 0 0 1-.1-.08c-.09-.18-.1-.36.17-.63v.08a1.33 1.33 0 0 1-.07.63zm172.24-279.47a5.17 5.17 0 0 0-.77-.46l-.29-.15-.47-.27v-.58a10.46 10.46 0 0 0-1.6-5.13c-.48-.9-.85-1.1-1.34-1.12a3.93 3.93 0 0 0-1.31.31l-.16.07a3.12 3.12 0 0 1-1.11.27 1 1 0 0 1-.66-.28.91.91 0 0 0-.65-.24 5.62 5.62 0 0 0-.72.08 5.55 5.55 0 0 1-1 .1h-.2a2.52 2.52 0 0 1-.88-.2 1.34 1.34 0 0 0-.32-.09h-.17c-.13.06-.38.26-.67 1-.2.49-.38 1-.57 1.48l-.06.17c-.28.76-.58 1.55-.92 2.32-.6 1.35-1.29 2.63-1.94 3.82-.25.44-.53.86-.85 1.35s-.46.69-.66 1.05l-.16.29a4.81 4.81 0 0 1-1.69 2.05 1.09 1.09 0 0 0-.39 1.18 14.14 14.14 0 0 1 0 5.43c-.09.64-.2 1.36-.25 2a17.36 17.36 0 0 1-.31 2.12 13.34 13.34 0 0 0-.29 2.35 5.26 5.26 0 0 1-1.16 3.07 4 4 0 0 0-.75 1.48 5.72 5.72 0 0 1-.5 1.45l-.14.3c0 .08-.07.16-.11.26a2.63 2.63 0 0 1-.8 1.24 4.1 4.1 0 0 0-1.22 2.64l-.1.49-.23 1a16.69 16.69 0 0 0-.66 6.35 9.25 9.25 0 0 1-2 7.21c-1.13 1.41-2.19 2.94-3.22 4.43l-1 1.45c-.29.41-.56.84-.88 1.36a15.43 15.43 0 0 1-1.94 2.69 45.81 45.81 0 0 0-5.21 6.85c-.72 1.09-1.54 2.32-2.38 3.48a10.79 10.79 0 0 1-4.74 4l-.63.25-.38-.6c-.18-.29-.37-.56-.56-.83a9.32 9.32 0 0 1-1.2-2.09 3.13 3.13 0 0 0-.67-1.2c-.2-2.87-.29-5.79-.26-8.67v-.95a1.55 1.55 0 0 0 .08-.23 8 8 0 0 0 .25-2.15 15.25 15.25 0 0 1 .65-1.65 9.24 9.24 0 0 0 .92-3.07 9.36 9.36 0 0 0 0-1.18 3.17 3.17 0 0 1 .53-2.57l.06-.05v-.06a.37.37 0 0 0-.07-.38.45.45 0 0 0-.38-.16 1 1 0 0 0-.88.53 16.49 16.49 0 0 0-1.48 6.75v1.93a9.92 9.92 0 0 0-.3 2.27 14.41 14.41 0 0 1-.74 1.6c-.12.22-.24.45-.35.69a3.73 3.73 0 0 0-1-2.08l-.32-.31v-.47a20.76 20.76 0 0 1 .68-3.67 8.29 8.29 0 0 1 .38-1.14 3 3 0 0 0 .28-1.49 5.25 5.25 0 0 1 .22-1.65c.45-1.42.73-2.56 1-3.69s.61-2.45 1.12-4a15 15 0 0 0 .52-2.33c.09-.52.19-1.18.39-2l.18-.78a5.25 5.25 0 0 1 1.26-2.67 4.39 4.39 0 0 0 .77-1.64c.74-2.88 1.81-4.23 3.72-6.62l-1.24 3a9 9 0 0 0-.78 2.71 4.7 4.7 0 0 0 .82 2.91l.14.2.24-.09a1.08 1.08 0 0 0 .73-.88 70.88 70.88 0 0 1 1.1-7c.26-1.34.53-2.72.8-4.4h-.2a3.2 3.2 0 0 1 1-.68 1.64 1.64 0 0 0 .45-.5c.75-1.18 1.47-2.39 2.14-3.53.44-.74.86-1.49 1.33-2.32.92-1.62 1.87-3.28 2.91-4.85a22.59 22.59 0 0 0 2.47-4.61c.1-.25.19-.51.29-.83a8.32 8.32 0 0 1 .88-2.07 3.49 3.49 0 0 0 .41-2.7 10.77 10.77 0 0 0-.61-2l-.09-.23-1.28.24-1.84-1.58-.21.18a9.27 9.27 0 0 0-1 1 1.78 1.78 0 0 1-1.41.65 2.06 2.06 0 0 1-.65-.16l-.25-.09-.14.21a7.51 7.51 0 0 1-3.63 2.89 7.74 7.74 0 0 0-3.38 2.69 13.48 13.48 0 0 0-1.39 3c-.18.5-.37 1-.57 1.48a1.44 1.44 0 0 0-.1.27 2.35 2.35 0 0 1-.7 1.19c-1.36 1.07-1.6 2.71-1.88 4.61 0 0-.08.6-.1.77a5.68 5.68 0 0 1-.69 2.41c-1 1.58-1.07 2.84-1.25 5.38a7.24 7.24 0 0 1-.91 2.77 8.29 8.29 0 0 0-.59 1.34 9.39 9.39 0 0 0-.4 1.86 11.93 11.93 0 0 1-.22 1.25 12.9 12.9 0 0 1-1.34 4.07 7.1 7.1 0 0 0-1.4 2.74c-.1.36-.23.82-.46 1.48-.31.92-.63 1.87-1 2.86a10.18 10.18 0 0 1-.8 1.58 9.71 9.71 0 0 0-.53 1l-.25.51a3.31 3.31 0 0 0-.46 1.31 2.51 2.51 0 0 1-.38 1.94 4.37 4.37 0 0 0-.38.78 6.33 6.33 0 0 0-.6 2.46v.39l-.23.3c-.82 1.05-1.38 3.64-1.68 5s-.45 2-.92 2.23a1.5 1.5 0 0 0-.71.68.78.78 0 0 0 .11.54 5.63 5.63 0 0 1 .42 3.42 42.63 42.63 0 0 1-1.29 5.87 1.66 1.66 0 0 0 .26 1.74 7.65 7.65 0 0 1 1 5 4 4 0 0 1-.13.64v.2a3.74 3.74 0 0 1 .34 2.26 3.15 3.15 0 0 0 0 .88 19.71 19.71 0 0 1 .34 3.74 6 6 0 0 0 1.19 3.05c.17.28.33.55.53.9.37.68.51.78.62.83h.14a.94.94 0 0 0 .28-.07l.22-.07h.16a1.92 1.92 0 0 1 1.19.79l.17.18c.41.4.8.82 1.2 1.24l.16.18.52-.17a7.9 7.9 0 0 1 2.43-.5 3.59 3.59 0 0 0 2.78-1.43l.43-.48.55.27a3.15 3.15 0 0 0 1.19.33h.16c1 0 2-.69 3.23-2.42a2 2 0 0 1 .32-.56 1.77 1.77 0 0 1 .57-.43l.11-.07.37-.23 1.29.55.49-.62a15.5 15.5 0 0 0 1.73-2.5 44.9 44.9 0 0 1 3.94-6l.28-.33.14-.18v-.25a23.11 23.11 0 0 0 1.6-2.06l2.59-3.62a13.3 13.3 0 0 0 1.88-3.24 1.64 1.64 0 0 0 .25.21l.4.27a4.21 4.21 0 0 1 .65.48l-.27.6a.42.42 0 0 0 0 .33l.09.55a8.35 8.35 0 0 1 .62 2l-.51.08a2 2 0 0 1 0 .85 4.22 4.22 0 0 1-.52-1.19 5.6 5.6 0 0 1 0-2.1l-.3-.08.3.08-.6-.16a4.29 4.29 0 0 0 0 2.36c.23 1.71 1.08 4.69 2.82 5h.25l.1-.21a5.17 5.17 0 0 0 .23-.59c.15 1.16.24 1.87.57 3.72l-.44-.24-.14-.31h-.11c-.1-.16-.2-.31-.29-.47l-.57.21.26.76.22.11a7.11 7.11 0 0 0 2.2 3.77 24.53 24.53 0 0 0 1.58 2.07 3.33 3.33 0 0 0 2.17 1.25 9.59 9.59 0 0 0 4.09 1.18h.53a10.55 10.55 0 0 0 1.13-.07l.82-.11-.69-.41c-2.6-1.55-3.35-2.61-3.85-5.39a56.25 56.25 0 0 1-.86-8.26c0-1.72.06-3.33.07-4.85 0-4.42.06-8.24 1-11.94l-.61-.12a127.12 127.12 0 0 0-2.71 15.77c0-.3 0-.6-.05-.92a38 38 0 0 1 .1-7 65.18 65.18 0 0 1 2.36-12c.35-1.27.73-2.66 1.15-4.32a9 9 0 0 0 .18-1.1 6.73 6.73 0 0 1 .62-2.32 20.12 20.12 0 0 0 1.17-2.75c.21-.55.41-1.1.64-1.63l.11-.29a4.93 4.93 0 0 1 .57-1.08 13.06 13.06 0 0 0 2.53-5.94 7.22 7.22 0 0 1 .45-1.45c.77-1.92 1.54-3.84 2.33-5.75-.31 1.33-.76 2.63-1.19 3.9l-3.83 11.22c-1 2.91-2 5.93-1.93 9.09l.61.07c3-9.65 7-20.84 13.47-30.64a5 5 0 0 0 .62-.74c.12-.18.25-.36.4-.55a2 2 0 0 0 .08-.52 2.62 2.62 0 0 1 .93-2.05l.1-.07v-.59a3.4 3.4 0 0 0 0-1.18 3.57 3.57 0 0 1 .35-2.58l.24-.5c.65-1.34 1.33-2.72 1.92-4.13s.49-1.87-.72-2.84zm-29.53 65.24h-.1l.11-.07zm-23.89-2.79c0 .12 0 .23.08.35l-.12-.09zm23.9 2.57a.46.46 0 0 1 0 .16l-.05-.25zm-1.17.58l-.28-.07z" transform="translate(-2.18 -1.72)"/><path class="cls-1" d="M186.31 262.41a3.75 3.75 0 0 0 .85-2.7 23.39 23.39 0 0 0-.35-4.34h-.61l-1.86 6.35a24 24 0 0 1-1.54 4.22l.49.34a6.85 6.85 0 0 0 2.26-3l-.21-.12.26-.19a5.54 5.54 0 0 0 .71-.56zm-40.07-67.51v-.1a2.64 2.64 0 0 1 .46-.71 1 1 0 0 0-.18-1.77l-.23-.17c0-.27-.09-.53-.14-.8a15.8 15.8 0 0 1-.24-1.68c-.13-1.72-.59-2.36-2-2.84l-1.54-.54-.42-.16a1.94 1.94 0 0 1 .22-.34 1 1 0 0 0 .24-1.1.49.49 0 0 0-.46-.31c-.5 0-1 .7-1.22 1.35a2.88 2.88 0 0 0-.11.42c0 .27-.09.42-.21.48a1.66 1.66 0 0 1-.61-.23 1.92 1.92 0 0 0-.85-.29c-.67 0-.94.71-1 .95s-.1.11-.13.11a.26.26 0 0 1-.15-.07c-.32-.28-.63-.58-.93-.87s-.74-.72-1.13-1l-.15-.13a2.28 2.28 0 0 0-1.26-.72h-.11c-.38.06-.77.1-1.16.14a6.65 6.65 0 0 0-3.36.94 8.87 8.87 0 0 0-2.45 3.2 17.68 17.68 0 0 1-1 1.64l-.06.09v.1c.22 1.79-.58 3.06-1.93 4.52l-.16.17a1.66 1.66 0 0 0-.65 1.4 4.63 4.63 0 0 0 .23.83 2.18 2.18 0 0 1 .21.94c0 .29-.16.34-.62.4a1.38 1.38 0 0 0-1 .47 4.42 4.42 0 0 0-1 2.1c0 .21 0 .43-.07.65a4.26 4.26 0 0 1-.4 1.75 9.39 9.39 0 0 0-1 5.12v.87a1.79 1.79 0 0 0 1.11 1.76c.24.12.49.22.76.33h.1a40.48 40.48 0 0 1-3.65 5.59l-.38.52a6.37 6.37 0 0 1-1.63 1.71 15.23 15.23 0 0 0-4.86 4.89 41.93 41.93 0 0 1-4.32 5.49l-1.8 2c-3.76 4.3-7.66 8.76-11.12 13.5l-.14.2c-.21.31-.37.52-.67.58a3.65 3.65 0 0 1 .13-2.08 3.56 3.56 0 0 0-.07-2.86l-.12-.2-.22.07h-.12a.49.49 0 0 0-.37.21c-1.4 2.39-1.65 5.1-1.89 7.73v.41c0 .44.26.73.89.84l.62.1a10.32 10.32 0 0 1-1.3 2.43c-.13.18-.72 1.08-.72 1.08l-.11.27h.06c-2 2.14-3.83 4-5.54 5.65a21.17 21.17 0 0 1 2.53-4.77.77.77 0 0 0 .05-.81.82.82 0 0 0-.71-.43.79.79 0 0 0-.53.21l-4 3.56a.63.63 0 0 0-.46-.18.76.76 0 0 0-.37.1l-.07-.42a3.53 3.53 0 0 0-1.18-2.58 1.25 1.25 0 0 1 .18-.41 1.64 1.64 0 0 0-.06-1.73 4.5 4.5 0 0 1-.23-.43 2.87 2.87 0 0 0-.84-1.13c-.82-.56-1-1.5-1-2.84v-1.93a2.07 2.07 0 0 0-.44-1.58 3.86 3.86 0 0 1-1-2.53c0-.48-.09-1-.14-1.43a22.3 22.3 0 0 1-.17-4.33 1.72 1.72 0 0 0-.36-1.3 1.38 1.38 0 0 0-.84-.48 9.41 9.41 0 0 1-1.29-3.47 10 10 0 0 0-1.44-3.76.92.92 0 0 1 0-.4 7.64 7.64 0 0 0 0-2.19 6.6 6.6 0 0 1 0-2 4.8 4.8 0 0 0-1.12-4.29 2.91 2.91 0 0 1-.75-1.79v-.93a10.77 10.77 0 0 1 .13-3.45c.13-.5.24-1 .35-1.51a18.91 18.91 0 0 1 1.07-3.62 2.23 2.23 0 0 0-.36-2.32c-.3-.39-.23-.78-.08-1.42a9.33 9.33 0 0 0-.36-6.11 2.58 2.58 0 0 1-.18-1.69 1.06 1.06 0 0 0-.18-.84.57.57 0 0 0-.43-.22h-.12c-.42 0-.5-.19-.58-1v-.43a.89.89 0 0 0-.3-.49c-.17-.18-.29-.3-.2-.6a1.84 1.84 0 0 1 .47-.87l.58-.5h-.76c-.62 0-.93-.64-1.33-1.6a.47.47 0 0 1 0-.42.5.5 0 0 1 .36-.25l.82-.15-.74-.38-.65-.32a9.14 9.14 0 0 1-1.38-.75 1.48 1.48 0 0 0-.91-.29 3.33 3.33 0 0 0-1 .18 2.64 2.64 0 0 1-.79.16 1 1 0 0 1-.59-.19.61.61 0 0 0-.36-.1 2.08 2.08 0 0 0-.61.14 1.07 1.07 0 0 0-.56.47c-.17.32-.36.63-.55.93a6.06 6.06 0 0 0-1.2 3.12c-.56.19-.87.43-1 .76a1.55 1.55 0 0 0 .37 1.36c0 .07.09.12.13.18s.08.1.09.1a4 4 0 0 0-.85 1.51 4.62 4.62 0 0 1-.54 1.09 11.41 11.41 0 0 0-1.58 3.49 16.46 16.46 0 0 1-.85 2.26 3.85 3.85 0 0 0-.29 1.66 5.8 5.8 0 0 1-.51 2.33c-.06.19-.13.37-.2.57a7.26 7.26 0 0 0-.29 1.46 5.92 5.92 0 0 1-.45 1.83 18 18 0 0 0-1.27 4.38c-.15.73-.3 1.49-.49 2.2a3.63 3.63 0 0 0 .19 2 4.42 4.42 0 0 1 .24 1.56 3.23 3.23 0 0 0 1.87 3.48 3.12 3.12 0 0 1 .54.39l.26.25a14.66 14.66 0 0 0 .67 6.86l.23.64.3-.61a2.79 2.79 0 0 1 1.1-1.23.35.35 0 0 1 .19-.06.31.31 0 0 1 .24.12.73.73 0 0 1 .2.54c0 .23 0 .47-.05.7a4.57 4.57 0 0 0 0 1.28v.21c.19 1 .4 2.19 1.43 2.61s1.44 1.62 1.48 3.33a10.73 10.73 0 0 1-.11 1.47c0 .35-.08.71-.1 1.06a1.87 1.87 0 0 0 .87 1.83l.22.12a6.11 6.11 0 0 0 1.24.59c.31.09.45.32.55.9 0 .13 0 .26.08.39a2.05 2.05 0 0 1 0 1.32 2.59 2.59 0 0 0 .22 2.34 8.55 8.55 0 0 0 1.78 2.43 13.34 13.34 0 0 1 3.24 5.87 5.63 5.63 0 0 1 .14.59c.14.72.29 1.52 1 1.86a5.53 5.53 0 0 0 .24.72 2.62 2.62 0 0 1 .25 1.75 3.51 3.51 0 0 0 .21 2.08l.06.22a9.22 9.22 0 0 0 2.89 4.47 5.46 5.46 0 0 1 1.25 1.6l.08.14a22.24 22.24 0 0 1 1 2 13.32 13.32 0 0 0 1.92 3.34 2.46 2.46 0 0 0 1.68 1 2.88 2.88 0 0 0 .58.76l.28.27.17-.35a3.69 3.69 0 0 1 2.09-1.51l.56-.25c1.25-.57 2.31-1.82 1.82-3l-.13-.32-1 .67a46.16 46.16 0 0 0 3.13-3.96l.41-.57-.69.12a5.39 5.39 0 0 0-2.11.88l1.42-2.69-.43-.35-1.15.92a42.12 42.12 0 0 1 6.74-8.48l-.37-.42-3.57 2.8a2.27 2.27 0 0 1-1.19.48.45.45 0 0 1-.33-.1c1.86-1.92 3.58-3.86 5-5.52h.2a12 12 0 0 1 .41 1.7l.11.56v.12l.15.06a.71.71 0 0 1 0 .32l-.2 1.2a7.77 7.77 0 0 0-.31 1.19 2.81 2.81 0 0 0 0 1.6l.08.17h2.36v3.58H95v-.57l.8.57h1a3.07 3.07 0 0 1 0 1.12 5.89 5.89 0 0 1-.9 1.73c-.16.13-.7.76-1 1.07h-1.7l.16 1c-.64 0-1 .13-1.08.41s.26.67.39.77c.6.49.59.73.57 1a1.11 1.11 0 0 0 0 .53l.23.69h.44l-.65 1.5c-.49.9-1.48 2.41-1.49 2.43l-.29.44H92c.48 0 .87-.49 1.25-.95a3.08 3.08 0 0 1 .56-.6.46.46 0 0 1 .1.17.77.77 0 0 1 0 .64.53.53 0 0 1-.43.17h-.3v1.59l.15.09.46.24a3.4 3.4 0 0 0 1.22.4 55.78 55.78 0 0 1-9.56 18.07l1.23-2.44-.5-.26-10.76 21.3a20.69 20.69 0 0 1 .43-3.15l-.55-.14a40.35 40.35 0 0 1-1.5 4.12l1.71-7.3c0-.06 0-.13.07-.2l1-4.27-.54-.16c-.25.68-.88 1.44-1.38 1.44h-.17l-.09.16a11 11 0 0 0-1.18 6.08l.06.63.52-.57c-.5 1.48-1 3-1.42 4.42-.89 2.84-1.8 5.75-3 8.53a48.52 48.52 0 0 0 1.51-6.52l.07-.44-.43.12a1.81 1.81 0 0 0-1.08 1.35l-.07.22a2.39 2.39 0 0 1-.48 1 .66.66 0 0 1-.42.16c-.09 0-.29 0-.33-.14l-.15-3.22-.48.84c-2 3.56-3.95 7.25-5.82 10.81l-.43.84c-.92 1.74-1.7 3.57-2.45 5.35a62.49 62.49 0 0 1-2.82 5.94c-1.56 2.83-3 5.75-4.12 8.22l.49.27a5.94 5.94 0 0 1 1.88-2.11 6.05 6.05 0 0 1-1.28 4c-.19.28-.38.57-.58.85a8.29 8.29 0 0 0-2.08 4.91 13.28 13.28 0 0 1-.25 1.45 2.63 2.63 0 0 1-1.37 1.8.87.87 0 0 0-.16-.23 1 1 0 0 0-.73-.31h-.16a2.19 2.19 0 0 0-1.08.7c-.53.55-1.07 1.15-1.62 1.75a40.21 40.21 0 0 1-2.8 2.91 29.83 29.83 0 0 0-2.14 4.53q-.19.57-.51.57a1 1 0 0 1-.48-.19.63.63 0 0 0-.36-.1.71.71 0 0 0-.55.25l-.49.53a6.45 6.45 0 0 0-2 3.26 4.36 4.36 0 0 1-2.25 3.24 3.13 3.13 0 0 0-1.36 2.68 12.66 12.66 0 0 1-2.22 5.65 4.09 4.09 0 0 0-.88 3.24 6.47 6.47 0 0 1-.36 2.87 7 7 0 0 0-.38 3.1 1.37 1.37 0 0 1-.26.51l-.09.14c-1.27 2-1.19 4.25-1.11 6.4v1.32a3.54 3.54 0 0 0 .8 1.9 6.48 6.48 0 0 0 11-1 16.91 16.91 0 0 0 2.16-6.48v-.25c.1-1.36.23-2.2 1.51-2.42.31-.05.56-.42.82-1.22v-.1c.51-1.58 1-3.21 1.47-4.84l.08-.33a2.81 2.81 0 0 1 .72-1.54c2-1.7 2.72-4.18 3.14-6.37a17.49 17.49 0 0 1 3.61-7.53 13.81 13.81 0 0 0 2.21-4.29c.24-.75.47-1.51.71-2.27a48.35 48.35 0 0 1 3.08-8.18 3.93 3.93 0 0 0 .54-1.64 3.93 3.93 0 0 1 .91-2.19 5.94 5.94 0 0 0 .87-1.61c1.44-.94 1.88-2.49 2.31-4l.21-.73a4.06 4.06 0 0 1 .42-1.11 21.09 21.09 0 0 0 2.27-5.34 7.25 7.25 0 0 1 1.94-3.38 7 7 0 0 0 1.95-3 10.52 10.52 0 0 1 .86-1.71c.2-.35.39-.69.57-1a50.14 50.14 0 0 0 4.41-11.08 15.29 15.29 0 0 1 .59-2l.09-.25a3.75 3.75 0 0 1 1-1.81c1.78-1 2.52-2.78 3.24-4.46.12-.28.23-.56.36-.83 1.39-3.11 3.06-6.11 4.68-9l1.1-2a1.78 1.78 0 0 1 .63-.59 4.12 4.12 0 0 0 .41-.32l.22-.19a4.35 4.35 0 0 0 1.83-2.94l.34.1-.13-.38a5.76 5.76 0 0 0 .41-.44 1.36 1.36 0 0 0 .11-1.37c-.12-.39-.16-.58 0-.73a4.48 4.48 0 0 1 1.07-.76l.62-.38a.81.81 0 0 0 .25-.4 15.8 15.8 0 0 1 1.73-2.69 11.24 11.24 0 0 0 2.46-4.43.49.49 0 0 1 .19-.3 2.73 2.73 0 0 0 1.42-1.84 4.73 4.73 0 0 1 .25-.62c.16-.35.31-.7.46-1.05a16.36 16.36 0 0 1 1.17-2.33 21 21 0 0 0 2.45-5.5l.07-.23a6.58 6.58 0 0 1 .83-2c1.38-2 2.68-4.19 3.94-6.27l.41-.68c.33-.54.64-1 1.15-1.07a3 3 0 0 0 1.94-1.45l.28-.38a5.71 5.71 0 0 1 .71-.67 3.76 3.76 0 0 0 1.19-1.43 20 20 0 0 1 1.26-2.38 13.05 13.05 0 0 0 1.75-4.05 3.09 3.09 0 0 1 1.36-1.82 1.82 1.82 0 0 0 .61-2.64 1.45 1.45 0 0 1 0-1.14 1.31 1.31 0 0 1 .73-.75 4.38 4.38 0 0 1 .83-.2 6.63 6.63 0 0 0 .72-.2 1 1 0 0 0 .7-.68.77.77 0 0 0-.18-.74 1 1 0 0 1-.33-.87 1.2 1.2 0 0 1 .75-.69c1.46-.58 1.81-1.85 2.11-3a6.55 6.55 0 0 1 .54-1.51l.13-.24-.23-.14c-.34-.21-.36-.31-.36-.31s.17-.21.24-.28a1.29 1.29 0 0 0 .43-.57c1.52-4.08 1.52-4.08 4.58-7.72a5.19 5.19 0 0 0 .5-.81 3.3 3.3 0 0 1 .18-.32l1.54-2.68h.1v-.11l.25-.44-.31.05a1.85 1.85 0 0 0-.17-.72 1 1 0 0 1-.17-.76.35.35 0 0 1 .23-.19c1.45-.56 1.92-1.83 2.38-3.05l.09-.22c.81-2.18 1.12-2.42 2.9-3.11l.4-.14a8.38 8.38 0 0 0 1.31-.57c.28-.15.69-.75.55-1.1a2.42 2.42 0 0 1 .79-2.84 1.36 1.36 0 0 0 .22-1.46l-.06-.24c-.08-.4 0-.52 0-.54s.16-.06.22-.06a1.83 1.83 0 0 1 .46.07 1.8 1.8 0 0 0 .53.08c.87 0 1-.81 1-1.15a1.82 1.82 0 0 0-.1-.76.92.92 0 0 1 0-.71c.08-.13.27-.21.62-.24a2.35 2.35 0 0 0 .61-.12.9.9 0 0 0 .53-.72.8.8 0 0 0-.32-.77 2.79 2.79 0 0 0-.45-.24c-.37-.16-.49-.24-.47-.5s.12-.27.5-.37a1.61 1.61 0 0 0 .54-.2 5.73 5.73 0 0 0 3-4.43 2.9 2.9 0 0 1 .4-1.39 4.3 4.3 0 0 0-.07-4.86 1.59 1.59 0 0 1 .13-1.73z" transform="translate(-2.18 -1.72)"/></svg>